<?xml version="1.0" encoding="UTF-8" standalone="no"?>
<svg
   xmlns:dc="http://purl.org/dc/elements/1.1/"
   xmlns:cc="http://creativecommons.org/ns#"
   xmlns:rdf="http://www.w3.org/1999/02/22-rdf-syntax-ns#"
   xmlns:svg="http://www.w3.org/2000/svg"
   xmlns="http://www.w3.org/2000/svg"
   xmlns:sodipodi="http://sodipodi.sourceforge.net/DTD/sodipodi-0.dtd"
   xmlns:inkscape="http://www.inkscape.org/namespaces/inkscape"
   id="svg5105"
   version="1.1"
   viewBox="0 0 21.505369 19.74345"
   height="19.74345mm"
   width="21.505369mm"
   sodipodi:docname="openshift-icon.svg"
   inkscape:version="0.92.3 (2405546, 2018-03-11)">
  <sodipodi:namedview
     pagecolor="#ffffff"
     bordercolor="#666666"
     borderopacity="1"
     objecttolerance="10"
     gridtolerance="10"
     guidetolerance="10"
     inkscape:pageopacity="0"
     inkscape:pageshadow="2"
     inkscape:window-width="1920"
     inkscape:window-height="983"
     id="namedview5171"
     showgrid="false"
     fit-margin-top="0"
     fit-margin-left="0"
     fit-margin-right="0"
     fit-margin-bottom="0"
     inkscape:zoom="2.3786088"
     inkscape:cx="44.769747"
     inkscape:cy="13.290846"
     inkscape:window-x="0"
     inkscape:window-y="27"
     inkscape:window-maximized="1"
     inkscape:current-layer="svg5105" />
  <defs
     id="defs5099" />
  <metadata
     id="metadata5102">
    <rdf:RDF>
      <cc:Work
         rdf:about="">
        <dc:format>image/svg+xml</dc:format>
        <dc:type
           rdf:resource="http://purl.org/dc/dcmitype/StillImage" />
        <dc:title></dc:title>
      </cc:Work>
    </rdf:RDF>
  </metadata>
  <path
     d="m 3.15561,15.589518 c 0.26772,0.37287 0.57795,0.7474 0.89512,1.07922 l 3.75973,-1.35996 c -0.43091,-0.26905 -0.82798,-0.58883 -1.18269,-0.9525 z M 21.03962,9.1228178 17.60004,10.374298 c -0.0374,0.50376 -0.1351,1.0012 -0.29104,1.48167 l 3.73062,-1.37848 c 0.0313,-0.45101 0.0313,-0.9036602 0,-1.3546702 m -0.037,-5.00062 c -0.10848,-0.17728 -0.22225,-0.3519 -0.34131,-0.52917 l -3.48343,1.25677 c 0.15098,0.15511 0.33704,0.31853 0.46982,0.48948 z M 6.223,9.5435078 c -0.008,-0.23114 -0.004,-0.46256 0.0132,-0.69321 L 2.78338,10.107068 c 0.0185,0.22225 0.045,0.44185 0.0794,0.65881 z m 12.21581,-3.39461 -3.28083,1.19327 c 0.61195,1.10038 0.88791,2.356 0.79375,3.6115702 l 3.43958,-1.2514802 c -0.099,-1.23437 -0.42742,-2.43944 -0.96838,-3.55336 m -0.82285,4.2148202 c -0.0563,0.76823 -0.25264,1.51967 -0.57944,2.2172 -1.49963,3.20829 -5.3136,4.59681 -8.52487,3.10357 -0.69765,-0.32418 -1.33058,-0.77244 -1.86796,-1.32292 l -3.45628,1.23324 c 0.97782,1.38096 2.31358,2.50577 3.84522,3.22499 4.94301,2.29766 10.81316,0.16145 13.12333,-4.77573 0.72196,-1.53452 1.03199,-3.23056 0.89958,-4.9212502 z M 3.28083,11.665468 0,12.858738 c 0.3026,1.20069 0.82565,2.33471 1.54252,3.34433 l 3.43958,-1.25413 c -0.87757,-0.90415 -1.47089,-2.0457 -1.70656,-3.28347 M 13.89591,4.0560478 c 0.69173,0.32628 1.3191,0.7744 1.85209,1.32292 l 3.45281,-1.25677 C 13.3763,-3.9540422 0.61474,0.6983878 1.35466,10.628298 L 4.80748,9.3715278 c 0.33606,-4.46317 5.03364,-7.21061 9.08843,-5.31548 m 7.60942,0.97631 c -0.23972,-0.49993 -0.52118,-0.97876 -0.84138,-1.43139 l -3.48343,1.25677 c 0.39683,0.40813 0.78146,0.86724 1.05721,1.36525 z M 6.24416,8.8582378 2.78341,10.107068 c 0.043,0.5514 0.13146,1.09831 0.26459,1.63512 l 3.28083,-1.19327 C 6.22024,9.9896578 6.18643,9.4184578 6.22829,8.8502978 M 3.15565,15.589518 c 0.26772,0.37287 0.57795,0.7474 0.89512,1.07922 l 3.75973,-1.35996 c -0.43091,-0.26905 -0.82798,-0.58883 -1.18269,-0.9525 z M 21.03966,9.1228178 17.60008,10.374298 c -0.0374,0.50376 -0.1351,1.0012 -0.29104,1.48167 l 3.73062,-1.37848 c 0.0313,-0.45101 0.0313,-0.9036602 0,-1.3546702 m -0.037,-5.00062 c -0.10848,-0.17728 -0.22225,-0.3519 -0.34131,-0.52917 l -3.48347,1.25677 c 0.15098,0.15511 0.33708,0.31853 0.46986,0.48948 z m -14.77962,5.42131 c -0.008,-0.23114 -0.004,-0.46256 0.0132,-0.69321 L 2.78342,10.107068 c 0.0185,0.22225 0.045,0.44185 0.0794,0.65881 z m 12.21581,-3.39461 -3.28083,1.19327 c 0.61195,1.10038 0.88791,2.356 0.79375,3.6115702 l 3.43958,-1.2160402 c -0.099,-1.23437 -0.42742,-2.47488 -0.96838,-3.5888 m -0.82285,4.2148202 c -0.0563,0.76823 -0.25264,1.51967 -0.57944,2.2172 -1.49963,3.20829 -5.3136,4.59681 -8.52487,3.10357 -0.69765,-0.32418 -1.33058,-0.77244 -1.86796,-1.32292 l -3.45628,1.23324 c 0.97782,1.38096 2.31358,2.50577 3.84522,3.22499 4.94301,2.29766 10.81316,0.16145 13.12333,-4.77573 0.72196,-1.53452 1.03199,-3.23056 0.89958,-4.9212502 z M 3.28087,11.665468 4e-5,12.858738 c 0.3026,1.20069 0.82565,2.33471 1.54252,3.34433 l 3.43958,-1.25413 c -0.87757,-0.90415 -1.47089,-2.0457 -1.70656,-3.28347 M 13.89595,4.0560478 c 0.69173,0.32628 1.3191,0.7744 1.85209,1.32292 l 3.45281,-1.25677 C 13.37634,-3.9540422 0.61478,0.6983878 1.3547,10.628298 L 4.80752,9.3715278 c 0.33606,-4.46317 5.03364,-7.21061 9.08843,-5.31548 m 7.60942,0.97631 c -0.23972,-0.49993 -0.52118,-0.97876 -0.84138,-1.43139 l -3.48343,1.22133 c 0.39683,0.40814 0.78146,0.90268 1.05721,1.40069 z M 6.2442,8.8582378 2.78345,10.107068 c 0.043,0.5514 0.13146,1.11012 0.26459,1.64693 l 3.28083,-1.20508 C 6.22028,9.9896578 6.18647,9.4184578 6.22833,8.8502978"
     style="stroke-width:0.26458332"
     id="path5066"
     inkscape:connector-curvature="0" />
</svg>
