<?xml version="1.0" encoding="UTF-8" standalone="no"?>
<!-- Created with Inkscape (http://www.inkscape.org/) -->

<svg
   xmlns:dc="http://purl.org/dc/elements/1.1/"
   xmlns:cc="http://creativecommons.org/ns#"
   xmlns:rdf="http://www.w3.org/1999/02/22-rdf-syntax-ns#"
   xmlns:svg="http://www.w3.org/2000/svg"
   xmlns="http://www.w3.org/2000/svg"
   xmlns:sodipodi="http://sodipodi.sourceforge.net/DTD/sodipodi-0.dtd"
   xmlns:inkscape="http://www.inkscape.org/namespaces/inkscape"
   width="3in"
   height="3in"
   viewBox="0 0 76.200001 76.200002"
   version="1.1"
   id="svg8"
   inkscape:version="0.92.3 (2405546, 2018-03-11)"
   sodipodi:docname="red-hat-social-innovation-program.svg">
  <defs
     id="defs2" />
  <sodipodi:namedview
     id="base"
     pagecolor="#ffffff"
     bordercolor="#666666"
     borderopacity="1.0"
     inkscape:pageopacity="0.0"
     inkscape:pageshadow="2"
     inkscape:zoom="0.64"
     inkscape:cx="113.93257"
     inkscape:cy="-87.460166"
     inkscape:document-units="mm"
     inkscape:current-layer="svg8"
     showgrid="false"
     units="in"
     fit-margin-top="0"
     fit-margin-left="0"
     fit-margin-right="0"
     fit-margin-bottom="0"
     inkscape:window-width="1920"
     inkscape:window-height="983"
     inkscape:window-x="0"
     inkscape:window-y="27"
     inkscape:window-maximized="1" />
  <metadata
     id="metadata5">
    <rdf:RDF>
      <cc:Work
         rdf:about="">
        <dc:format>image/svg+xml</dc:format>
        <dc:type
           rdf:resource="http://purl.org/dc/dcmitype/StillImage" />
        <dc:title></dc:title>
      </cc:Work>
    </rdf:RDF>
  </metadata>
  <path
     style="fill:#ec2c3f;stroke-width:0.26458338"
     d="M 34.807162,64.145383 C 30.895433,61.985822 25.104183,58.134203 21.710293,55.434953 14.482134,49.686214 8.5407593,41.997242 6.4984452,35.748691 5.2686962,31.986213 4.9530682,27.134522 5.7057792,23.564192 c 0.501809,-2.38023 2.3593899,-6.177538 4.00919,-8.195678 2.6667128,-3.26208 7.1664468,-6.0599862 11.0692838,-6.8827972 2.71184,-0.57172 6.74908,-0.512767 9.28424,0.135572 2.40609,0.615332 5.09568,1.8061592 5.90317,2.6136452 0.684029,0.68403 0.71497,1.6517 0.0714,2.23408 -0.70403,0.63715 -1.36144,0.54727 -3.50257,-0.47884 -6.66734,-3.1952362 -14.22803,-1.83662 -19.313216,3.47048 -9.4203028,9.831408 -4.5622056,24.958759 12.062756,37.561538 4.6817,3.54902 12.007319,8.03887 13.11619,8.03887 0.69259,0 4.812369,-2.299589 8.292539,-4.62874 4.813782,-3.221699 7.766741,-5.616408 11.408442,-9.251699 5.117979,-5.108961 7.72758,-9.089461 9.37351,-14.297681 0.81832,-2.589419 1.0248,-7.29968 0.42335,-9.65729 -2.304661,-9.033858 -10.87491,-14.4546222 -19.867772,-12.566548 -3.749228,0.78716 -7.785018,3.44089 -10.30872,6.778488 -1.452118,1.92042 -3.72401,6.4024 -3.46103,6.82791 0.233762,0.37823 7.9854,0.38756 8.21881,0.01 0.196721,-0.31832 -1.061998,-3.10263 -2.39363,-5.29473 -0.782259,-1.28773 -0.884978,-1.63081 -0.663048,-2.214539 0.144439,-0.379899 0.56611,-0.82901 0.93704,-0.99802 0.564269,-0.257099 0.78621,-0.22382 1.358929,0.20378 0.88383,0.65987 2.483901,3.314789 3.548351,5.887579 0.461399,1.1152 0.959049,2.17646 1.1059,2.35837 0.342811,0.42465 5.493859,0.47036 5.493859,0.0487 0,-1.57573 -4.185809,-5.53715 -7.229261,-6.84172 -1.466889,-0.628789 -2.013219,-1.517238 -1.553458,-2.526298 0.16393,-0.359791 0.607128,-0.731731 0.984901,-0.826541 1.285107,-0.32254 4.829238,1.643401 7.366709,4.086339 8.727278,8.40216 7.466211,22.634528 -2.602252,29.36873 -3.545699,2.371508 -5.425908,2.671191 -5.861838,0.934299 -0.252971,-1.007901 0.0984,-1.429771 2.066981,-2.48158 2.975649,-1.589921 5.072178,-3.47372 6.512919,-5.852067 0.31894,-0.5265 0.57988,-1.092042 0.57988,-1.256771 0,-0.43923 -5.407581,-0.409829 -5.742871,0.0312 -0.13828,0.181901 -0.467958,0.926042 -0.732618,1.653654 -1.146072,3.150788 -3.254241,6.644788 -5.387912,8.929677 -1.82716,1.956659 -2.56958,1.70062 -5.19892,-1.792949 -1.62475,-2.158799 -3.280769,-5.232612 -4.05873,-7.533609 l -0.492,-1.455211 -2.95181,-0.0748 c -3.52536,-0.0893 -3.59375,0.006 -1.75785,2.451587 1.53941,2.050608 3.1281,3.391 5.61537,4.737719 2.252561,1.219634 2.607549,1.618821 2.350459,2.643129 -0.43593,1.736892 -2.316139,1.437201 -5.861839,-0.93431 -2.74247,-1.834269 -4.93122,-4.32226 -6.35669,-7.22575 -1.54789,-3.15283 -2.04438,-5.210609 -2.04523,-8.476738 -7.94e-4,-3.30222 0.54702,-5.66015 1.99802,-8.59895 1.37806,-2.79107 4.18093,-5.82806 7.00086,-7.585649 2.349,-1.46406 3.56877,-1.63757 4.333781,-0.61644 0.796539,1.063211 0.413298,1.707831 -1.708971,2.874509 -2.23157,1.22677 -4.01004,2.73691 -5.31205,4.51062 -1.49772,2.04029 -1.41206,2.13987 1.84072,2.13987 3.14625,0 2.68131,0.33695 3.91724,-2.83891 1.29424,-3.325689 2.837411,-5.641197 5.60208,-8.405877 2.95779,-2.95779 4.608811,-4.042414 8.00068,-5.2560182 2.221402,-0.794808 2.48912,-0.829283 6.419119,-0.826628 3.805952,0.0026 4.253342,0.05603 6.217711,0.742889 9.236149,3.2295272 14.761091,11.9679652 13.61898,21.5402752 -1.098611,9.207711 -7.19773,18.018151 -18.298379,26.432801 -4.974781,3.77104 -13.447491,8.834469 -14.76129,8.821599 -0.36721,-0.004 -1.977342,-0.729588 -3.578071,-1.61331 z m 4.853591,-18.07379 c 1.183079,-1.64741 3.043021,-5.615731 2.858021,-6.097821 -0.218191,-0.5686 -8.048151,-0.602779 -8.26562,-0.0361 -0.340072,0.88623 3.29528,7.30671 4.137149,7.30671 0.235511,0 0.80721,-0.52777 1.27045,-1.172811 z m -9.95424,-13.511571 0.0164,-3.704169 -3.04117,-0.0742 c -2.57024,-0.0627 -3.0976,-0.006 -3.40556,0.36486 -0.46667,0.5623 -0.67041,5.494469 -0.26977,6.530541 l 0.28452,0.735769 3.19961,-0.0743 3.19962,-0.0743 0.0164,-3.704168 z m 13.906351,3.373441 c 0.2473,-0.602231 0.2473,-6.144651 0,-6.746881 -0.17136,-0.41732 -0.670891,-0.46302 -5.060831,-0.46302 -4.167209,0 -4.922079,0.0619 -5.22645,0.42866 -0.385789,0.464851 -0.529241,5.91785 -0.17839,6.781241 0.169939,0.4182 0.676399,0.463018 5.23185,0.463018 4.554691,0 5.062119,-0.0449 5.233821,-0.463018 z m 10.141939,-0.264581 c 0.393541,-1.01751 0.191471,-5.96288 -0.266179,-6.51431 -0.2922,-0.35207 -0.90901,-0.43101 -3.368021,-0.43101 h -3.01031 v 3.66007 c 0,2.013041 0.0794,3.73945 0.17639,3.836459 0.097,0.097 1.528709,0.17639 3.181551,0.17639 h 3.005158 z"
     id="path828-7"
     inkscape:connector-curvature="0" />
</svg>
