<?xml version="1.0" encoding="UTF-8" standalone="no"?>
<!-- Created with Inkscape (http://www.inkscape.org/) -->

<svg
   width="194.03799mm"
   height="188.41754mm"
   viewBox="0 0 194.038 188.41755"
   version="1.1"
   id="svg1"
   xml:space="preserve"
   inkscape:version="1.3 (0e150ed6c4, 2023-07-21)"
   sodipodi:docname="smartabyar-smartvillage-logo.svg"
   inkscape:export-filename="smartabyar-smartvillage-logo.png"
   inkscape:export-xdpi="96"
   inkscape:export-ydpi="96"
   xmlns:inkscape="http://www.inkscape.org/namespaces/inkscape"
   xmlns:sodipodi="http://sodipodi.sourceforge.net/DTD/sodipodi-0.dtd"
   xmlns:xlink="http://www.w3.org/1999/xlink"
   xmlns="http://www.w3.org/2000/svg"
   xmlns:svg="http://www.w3.org/2000/svg"><sodipodi:namedview
     id="namedview1"
     pagecolor="#ffffff"
     bordercolor="#000000"
     borderopacity="0.25"
     inkscape:showpageshadow="2"
     inkscape:pageopacity="0.0"
     inkscape:pagecheckerboard="0"
     inkscape:deskcolor="#d1d1d1"
     inkscape:document-units="mm"
     inkscape:zoom="0.69219276"
     inkscape:cx="647.9409"
     inkscape:cy="210.20156"
     inkscape:window-width="1920"
     inkscape:window-height="983"
     inkscape:window-x="0"
     inkscape:window-y="27"
     inkscape:window-maximized="1"
     inkscape:current-layer="layer1" /><defs
     id="defs1"><radialGradient
       inkscape:collect="always"
       xlink:href="#linearGradient1756"
       id="radialGradient2801"
       gradientUnits="userSpaceOnUse"
       gradientTransform="matrix(1.1242401,-0.01242402,0.01148264,1.0390556,-747.77197,-148.71426)"
       cx="751.13373"
       cy="265.47852"
       fx="751.13373"
       fy="265.47852"
       r="26.977358" /><linearGradient
       inkscape:collect="always"
       id="linearGradient1756"><stop
         style="stop-color:#000000;stop-opacity:1;"
         offset="0"
         id="stop1752" /><stop
         style="stop-color:#000000;stop-opacity:0;"
         offset="1"
         id="stop1754" /></linearGradient><filter
       inkscape:collect="always"
       style="color-interpolation-filters:sRGB"
       id="filter1768"
       x="-0.036704148"
       width="1.0734083"
       y="-0.035322362"
       height="1.0706447"><feGaussianBlur
         inkscape:collect="always"
         stdDeviation="0.82515063"
         id="feGaussianBlur1770" /></filter><radialGradient
       inkscape:collect="always"
       xlink:href="#linearGradient1756"
       id="radialGradient2799"
       gradientUnits="userSpaceOnUse"
       gradientTransform="matrix(1.2811233,0.00585674,-0.00475035,1.0391081,-860.95449,-165.3266)"
       cx="751.13373"
       cy="338.79019"
       fx="751.13373"
       fy="338.79019"
       r="26.977358" /><filter
       inkscape:collect="always"
       style="color-interpolation-filters:sRGB"
       id="filter1788"
       x="-0.036704148"
       width="1.0734083"
       y="-0.035322371"
       height="1.0706447"><feGaussianBlur
         inkscape:collect="always"
         stdDeviation="0.82515063"
         id="feGaussianBlur1790" /></filter></defs><g
     inkscape:label="Layer 1"
     inkscape:groupmode="layer"
     id="layer1"
     transform="translate(-47.509245,-120.44276)"><path
       style="fill:#f5bb2f"
       d="m 94.24767,178.84836 c -2.10126,-0.56506 -3.92846,-1.64371 -5.57707,-3.29232 -6.20648,-6.20648 -4.37653,-16.50475 3.60646,-20.29586 1.81519,-0.86203 2.3482,-0.9895 4.53792,-1.08527 4.01532,-0.17562 7.27094,1.06505 9.80489,3.73649 l 0.89051,0.93882 -3.5008,13.80227 v 2.46454 2.46453 l -0.99219,0.4807 c -2.51615,1.21902 -5.99893,1.53121 -8.76972,0.7861 z"
       id="path45"
       sodipodi:nodetypes="sssssccccss" /><path
       style="fill:#409945"
       d="m 151.39047,187.95017 -0.81927,-1.29247 c -2.82282,-4.45324 -2.33241,-10.18264 1.21272,-14.16787 1.00371,-1.12831 1.07301,-1.29788 0.81093,-1.98437 -0.38117,-0.99849 -0.3932,-3.66348 -0.0226,-4.99963 0.6817,-2.45756 3.05526,-4.92452 5.57736,-5.79683 1.82216,-0.63023 4.86656,-0.52088 6.72043,0.24139 1.52005,0.625 1.55401,0.6271 2.38125,0.14708 3.02581,-1.75576 8.78432,-2.27569 12.48087,-1.12689 6.27354,1.94968 10.35747,7.42238 9.45364,12.66843 l -0.26569,1.54215 1.0196,1.15833 c 2.53025,2.87452 2.7949,7.64896 0.58645,10.5801 -0.36354,0.4825 -0.6013,0.93695 -0.52836,1.0099 0.073,0.0729 0.93936,0.30141 1.92537,0.50771 2.10632,0.4407 4.3476,1.70779 5.43366,3.07189 1.21955,1.53176 1.64613,2.79654 1.63646,4.85198 0.62385,4.57303 -3.4845,11.95155 -3.4845,11.95155 -1.06526,0.12616 -1.43384,0.30219 -1.78115,0.85064 -1.23225,1.94588 -2.93275,3.09512 -4.9988,3.3783 l -1.19147,0.16331 c -2.49672,-0.0549 -1.34164,0.0267 -2.73298,-0.79708 -0.32362,-0.14745 -0.9808,-0.59828 -1.46041,-1.00184 -0.81518,-0.68593 -1.03891,-0.73548 -3.43241,-0.76015 -2.28604,-0.0236 -2.69208,-0.1038 -3.78928,-0.74881 -3.96026,-2.32809 -5.03837,-7.2894 -2.41328,-11.10561 0.63338,-0.92078 0.78542,-1.29529 0.47794,-1.1773 -0.24801,0.0952 -1.08813,0.17304 -1.86693,0.17304 -1.34161,0 -1.42178,0.0382 -1.52621,0.7276 -0.0606,0.40018 0.53534,-0.36509 -0.14386,-1.12448 l -2.47353,-0.4074 -0.81203,-0.41991 c -0.44662,-0.23096 -1.38577,-0.95659 -2.08701,-1.61252 -1.1063,-1.03481 -1.37208,-1.16559 -2.00893,-0.98852 -0.40367,0.11224 -1.67169,0.26504 -2.81612,0.361 -5.75499,0.48257 -6.65654,-1.58832 -9.06186,-3.87272 z"
       id="path172"
       sodipodi:nodetypes="cssscssssscsscsscssscssssssssccssssc" /><path
       id="path36"
       style="font-size:25.1836px;fill:#276841;fill-opacity:1;stroke-width:9.3228"
       d="m 135.04395,147.39756 c -0.41473,0 -1.12345,0.89376 -1.87585,2.36574 -0.97621,1.90986 -0.43243,5.34057 1.10019,6.94067 0.71797,0.74956 1.41077,0.73354 1.41077,-0.0331 0,-0.25292 -0.24094,-0.67819 -0.53537,-0.94464 -0.29442,-0.26645 -0.71502,-1.10318 -0.93483,-1.85932 -0.484,-1.66487 -0.23977,-3.08048 0.80357,-4.65708 0.71749,-1.08425 0.73018,-1.81229 0.0315,-1.81229 z m 10.94662,0.0915 c -0.0831,-0.0251 -0.15432,-0.0231 -0.20929,0.0109 -0.39436,0.24375 -0.4078,1.13068 -0.0207,1.36994 0.55264,0.34155 1.28416,2.36603 1.28416,3.55482 0,1.09178 -0.56985,2.67059 -1.34772,3.73414 -0.17175,0.23489 -0.23754,0.62184 -0.14624,0.8599 h -5.2e-4 c 0.2244,0.58478 0.51479,0.54498 1.17874,-0.16227 1.45048,-1.54508 2.01792,-4.33318 1.34152,-6.59081 -0.32999,-1.10141 -1.49841,-2.60097 -2.07998,-2.77658 z m -31.81304,0.36587 c -0.37832,0.16894 -1.19126,1.53385 -3.83078,6.10816 -2.07277,3.59214 -5.36985,9.29959 -7.3272,12.68295 l -3.558953,6.15156 h 2.233973 2.23449 v 4.98006 36.11924 c 0,1.50489 -2.40537,1.80914 -3.55896,2.77554 -0.485366,0.3006 -0.842809,0.49457 -0.885215,0.45217 -0.0772,-0.0772 -0.246922,-2.4922 -0.376722,-5.3666 -0.525479,-11.6367 -0.943874,-18.88437 -1.099674,-19.04018 -0.09055,-0.0905 -0.22499,-0.10471 -0.29869,-0.031 -0.16199,0.162 -0.960478,13.43516 -0.822689,13.67565 0.05334,0.0931 -0.06009,2.78888 -0.252181,5.99034 -0.192079,3.20145 -0.355802,6.24174 -0.363802,6.75617 -0.01275,0.80937 -0.337638,1.27258 -2.412256,3.43959 -4.007316,4.18577 -7.624775,9.22671 -9.997322,13.93145 -1.706793,3.38455 -3.077937,7.28177 -4.007507,11.17244 -1.838488,6.00854 -2.789383,12.25342 -2.822567,18.53685 0.05162,1.90939 0.18801,3.81554 0.40876,5.71283 H 205.66135 c 0.22058,-1.89729 0.35679,-3.80345 0.40824,-5.71283 -0.0423,-6.61073 -1.10046,-13.17569 -3.13727,-19.46496 -1.0039,-3.86321 -2.46193,-7.70201 -4.27158,-11.1063 -2.35074,-4.42219 -5.05737,-8.21701 -8.83512,-12.38787 l -1.81229,-2.00143 -0.25631,-5.76141 c -0.47815,-10.74486 -0.95578,-18.88853 -1.11725,-19.05 -0.0885,-0.0885 -0.2161,-0.10532 -0.2837,-0.0377 -0.1624,0.1624 -0.96233,13.46657 -0.82321,13.69167 0.12786,0.20688 -0.35377,8.29901 -0.50281,8.44806 -0.0273,0.0273 -0.25604,-0.1126 -0.58239,-0.34158 -3.96751,-3.54971 -8.35912,-6.59472 -13.07466,-9.06559 -0.0199,-0.4911 -0.16112,-3.40383 -0.35863,-7.35253 -0.21083,-4.21511 -0.58522,-12.0094 -0.83148,-17.3209 -0.24626,-5.31151 -0.4904,-9.70728 -0.5426,-9.76788 -0.0522,-0.0607 -0.15814,-0.0465 -0.23564,0.031 -0.12854,0.12854 -0.65495,9.82045 -1.44798,26.66866 -0.14971,3.18056 -0.2914,5.29028 -0.36586,5.87664 -8.19782,-3.64963 -17.06681,-5.54906 -26.04028,-5.57692 -8.86527,0.023 -17.65819,2.11964 -17.65819,2.11964 l 0.40188,-23.98083 0.004,-3.4954 0.004,-3.49539 2.19729,-0.0765 2.19779,-0.0765 -6.94376,-12.03855 c -3.81893,-6.62119 -7.09957,-12.29887 -7.29051,-12.6168 -0.0811,-0.13495 -0.15915,-0.21134 -0.28525,-0.15503 z m 23.22494,1.39475 c -0.53595,0 -1.42051,1.24796 -1.61334,2.27583 -0.22735,1.21189 0.0535,2.55114 0.71003,3.38584 0.62497,0.79452 0.83976,0.84169 1.3007,0.28629 0.27248,-0.32831 0.24993,-0.49386 -0.12247,-0.90537 -0.75924,-0.83895 -0.8328,-2.47688 -0.1602,-3.56516 0.5871,-0.94996 0.5462,-1.47743 -0.11472,-1.47743 z m 6.34225,0 c -0.6578,0 -0.70331,0.59102 -0.13178,1.71204 0.66649,1.30727 0.66498,1.62131 -0.0129,2.88613 -0.30024,0.56016 -0.48254,1.18327 -0.40514,1.38493 0.57479,1.49787 2.54338,-1.77181 2.1487,-3.56878 -0.23247,-1.05844 -1.13031,-2.41432 -1.59886,-2.41432 z m -3.33003,1.34979 c -0.35924,-0.003 -0.69343,0.16426 -1.03147,0.50229 -0.58861,0.58862 -0.68742,1.60583 -0.22737,2.3425 0.2295,0.36749 0.16619,2.28314 -0.2651,7.98762 -0.31205,4.12735 -0.65668,7.59151 -0.76533,7.69772 -0.10866,0.10621 -0.67365,0.23089 -1.25574,0.27699 -0.72709,0.0576 -1.05833,0.20793 -1.05833,0.48059 0,0.28255 0.34348,0.41931 1.19269,0.47491 l 1.19321,0.078 -0.13488,1.50947 -0.13435,1.50947 -1.05834,0.13229 c -1.4171,0.17714 -1.46407,0.89251 -0.0661,1.0082 1.19562,0.099 1.15974,-0.33159 0.57774,6.89364 l -1.7996,20.94415 1.70962,0.75835 1.52091,-22.72518 0.43873,-5.68854 1.23455,-0.0796 1.23404,-0.0801 0.15864,1.6676 c 0.40564,4.26563 2.0208,26.59957 2.0208,26.59957 l 2.09195,-0.28996 c 0,0 -2.18204,-20.54033 -2.75882,-26.54474 l -0.14573,-1.37304 0.99063,-0.0822 c 0.69227,-0.0574 1.01668,-0.22154 1.07798,-0.54518 0.0719,-0.37952 -0.10616,-0.46302 -0.98961,-0.46302 -0.73246,0 -1.07797,-0.11557 -1.07797,-0.36019 0,-0.19798 -0.0746,-0.90455 -0.16588,-1.57044 l -0.16588,-1.21078 1.15548,-0.0832 c 0.84993,-0.061 1.17926,-0.20523 1.24386,-0.5457 0.0733,-0.38632 -0.11242,-0.46303 -1.1219,-0.46303 -0.66551,0 -1.22028,-0.0297 -1.23248,-0.0661 -0.0122,-0.0364 -0.29286,-3.51897 -0.62374,-7.73906 -0.51044,-6.51034 -0.54707,-7.75203 -0.24236,-8.19485 0.55375,-0.80474 0.42849,-1.63419 -0.33796,-2.23708 -0.43831,-0.34477 -0.82261,-0.51829 -1.18184,-0.52141 z m 26.4852,0.24753 c -1.15813,0.003 -2.88026,0.96741 -3.44888,1.93115 l -0.53537,0.90744 -1.68207,-0.1354 c -1.43241,-0.11498 -1.84722,-0.0419 -2.79621,0.49145 -1.19574,0.67205 -2.54626,2.60851 -2.28823,3.28093 0.27339,0.71244 0.90021,0.41209 1.5875,-0.76067 1.02332,-1.74615 2.22845,-2.05453 5.23689,-1.34101 0.63727,0.15114 0.75412,0.0525 1.24023,-1.04645 0.74532,-1.68491 1.88408,-2.22916 3.75946,-1.79627 1.90178,0.43899 2.15304,0.40771 2.05414,-0.25631 -0.062,-0.41609 -0.40246,-0.66253 -1.27538,-0.92243 -0.65483,-0.19497 -1.48828,-0.35341 -1.85208,-0.35243 z m -26.36428,8.27495 c 0.0907,-0.0907 0.70932,8.27402 0.70332,9.50846 -0.003,0.59406 -0.12228,0.7276 -0.64958,0.7276 -0.35521,0 -0.70189,-0.0911 -0.77049,-0.20205 -0.12804,-0.20718 0.56293,-9.88019 0.71675,-10.03401 z m -26.41751,7.5985 c 1.18278,0.003 2.36554,0.53069 2.9099,1.58336 0.32721,0.63321 0.39388,1.61287 0.33538,4.95681 l -0.0729,4.16719 -3.05666,0.0739 c -1.68125,0.0408 -3.13977,-0.009 -3.24115,-0.11007 -0.10133,-0.10138 -0.18448,-2.01597 -0.18448,-4.25452 0,-3.12055 0.0938,-4.25115 0.40152,-4.84621 0.54311,-1.05025 1.72557,-1.57309 2.90835,-1.57045 z m 26.47229,3.6959 c 0.89602,0 0.91019,0.018 0.94929,1.19062 0.0218,0.65484 0.0516,1.33946 0.0662,1.52136 0.0158,0.19763 -0.37375,0.36379 -0.9679,0.41289 -1.1939,0.0988 -1.39086,-0.23683 -1.13585,-1.93735 0.17127,-1.14208 0.2132,-1.18752 1.08831,-1.18752 z"
       sodipodi:nodetypes="sssssssssssscccssssssccccccsscssscssccccccscccssssccsscsscccccccccssssssssssssssssssssssccccssccccccccscccccsscccsssssssssccsssssssssssssscccccssssssccsscsccscc" /><path
       style="fill:#409945"
       d="m 170.94438,200.71108 c 0.002,-0.7276 0.0534,-0.99386 0.11418,-0.59167 0.0608,0.40218 0.0592,0.99749 -0.004,1.32292 -0.0628,0.32542 -0.11256,-0.004 -0.11057,-0.73125 z"
       id="path184" /><path
       style="fill:#409945"
       d="m 167.76938,203.35692 c 0.002,-0.72761 0.0534,-0.99386 0.11418,-0.59168 0.0608,0.40219 0.0592,0.9975 -0.004,1.32292 -0.0628,0.32542 -0.11256,-0.004 -0.11057,-0.73124 z"
       id="path183" /><path
       style="fill:#409945"
       d="m 171.20896,206.00275 c 0.002,-0.72761 0.0534,-0.99386 0.11418,-0.59168 0.0608,0.40219 0.0592,0.9975 -0.004,1.32292 -0.0628,0.32542 -0.11256,-0.004 -0.11057,-0.73124 z"
       id="path182" /><path
       style="fill:#409945"
       d="m 103.68805,205.35132 -1.26853,0.62884 c -0.69769,0.34586 -1.77455,0.71125 -2.39301,0.81199 l -1.124483,0.18315 c 0,0 -1.844138,0.22329 -2.823988,-0.38812 -0.97985,-0.61141 -1.727802,-1.6538 -1.904162,-1.8663 -0.25121,-0.30269 -0.769,-0.35562 -2.39132,-0.24442 -1.82117,0.12483 -2.24227,0.0631 -3.49472,-0.51265 -1.97074,-0.90587 -3.00094,-1.84955 -3.79831,-3.47931 -1.36076,-2.78131 -1.07382,-5.78458 0.78541,-8.2203 0.87493,-1.14622 0.91193,-1.28078 0.75777,-2.7557 -0.27468,-2.62795 0.8503,-4.71872 3.18729,-5.92357 1.34572,-0.6938 3.87731,-0.75953 5.07751,-0.13184 0.78294,0.40948 0.89396,0.39722 2.51354,-0.27756 1.44062,-0.60022 2.0808,-0.70617 4.274103,-0.70737 l 2.57969,-0.001 0.26458,0.29074 1.38906,0.62771 c 3.1899,1.44149 5.07677,4.23668 4.91985,7.28819 -0.0731,1.42105 -2.6e-4,1.7576 0.49423,2.28396 1.40091,1.4912 1.79713,4.20583 0.90162,6.17729 -0.85871,1.89044 -3.00984,3.29635 -5.04363,3.29635 -0.89543,0 -1.12001,0.11597 -1.44626,0.74687 -0.21243,0.41078 -0.57267,0.90161 -0.80055,1.09073 z"
       id="path178"
       sodipodi:nodetypes="cssczsscsssssscccsssssscc" /><g
       id="g36"
       transform="matrix(1.9140121,0,0,1.863022,-85.14249,-183.80813)"><path
         id="path13-6"
         style="font-size:25.1836px;font-family:Jurassic;-inkscape-font-specification:Jurassic;stroke-width:34.6839"
         d="m 97.62103,223.67884 c -2.30275,0.0256 -4.29954,0.77953 -6.40529,2.37092 -0.70501,0.85667 -1.225556,1.77261 -1.561666,2.74815 -0.135263,0.26643 -0.227279,0.5267 -0.276469,0.78083 -0.06968,0.26643 -0.104387,0.5183 -0.104387,0.75603 0,0.53696 0.11673,1.0496 0.350366,1.53737 0.237735,0.48367 0.508006,0.9611 0.811316,1.43247 0.0492,0.0656 0.0986,0.13339 0.1478,0.20309 0.0328,0.0656 0.0759,0.13077 0.12919,0.19637 0.35251,0.52056 0.67798,1.05951 0.9772,1.61696 0.28692,0.55334 0.43046,1.15591 0.43046,1.80764 v 0.0801 0.0982 c -0.0166,0.0328 -0.0243,0.0575 -0.0243,0.0739 v 0.10438 c -0.20138,1.64792 -5.679734,2.32166 -7.30966,2.53623 0,0 -0.08278,0.92657 -0.03079,2.2595 0.03048,0.78147 0.142891,2.34293 0.142891,2.34293 7.378079,-0.0448 14.308108,-3.68381 14.021952,-8.65071 -0.23364,-0.53695 -0.49392,-1.07432 -0.78084,-1.61127 -0.0656,-0.10247 -0.12498,-0.20287 -0.17828,-0.30127 -0.0492,-0.0861 -0.0981,-0.16967 -0.14728,-0.25167 -0.31971,-0.59024 -0.62309,-1.18702 -0.91002,-1.78955 -0.28284,-0.60254 -0.45106,-1.23141 -0.50436,-1.88723 0.79094,-2.74959 1.37172,-2.01919 4.016287,-2.02519 l 0.57464,-4.02198 c -1.212347,-0.27897 -2.322077,-0.41781 -3.368777,-0.40618 z"
         sodipodi:nodetypes="scccscccccsccsccscccccccccss" /><path
         id="path18"
         style="font-size:25.1836px;font-family:Jurassic;-inkscape-font-specification:Jurassic;stroke-width:34.6839"
         d="m 113.28042,216.89167 -0.10438,6.12366 c 0.23773,0.0164 0.48119,0.0327 0.73122,0.0491 0.25413,0.0328 0.50651,0.0575 0.75654,0.0739 0.27053,0.0164 0.53921,0.0327 0.80564,0.0491 0.27053,0.0369 0.53869,0.0637 0.80512,0.0801 h 0.45527 c 0.15166,0.0166 0.30309,0.0248 0.45475,0.0248 0.78699,0 1.54098,-0.0925 2.26239,-0.27698 0.72141,-0.18445 1.3692,-0.54515 1.94304,-1.08211 0.11479,-0.11887 0.19888,-0.24559 0.25218,-0.38085 0.0328,-0.13527 0.0491,-0.26881 0.0491,-0.39998 0,-0.22134 -0.0268,-0.43219 -0.0801,-0.63303 -0.0656,-0.20085 -0.13917,-0.3854 -0.22117,-0.55346 -0.47137,-1.13949 -1.20277,-1.904 -2.1947,-2.2934 -0.98783,-0.38529 -2.02103,-0.61873 -3.09904,-0.70073 -0.31561,-0.0164 -0.62479,-0.0348 -0.92811,-0.0553 h -0.91002 -0.49816 c -0.16805,0 -0.3279,-0.008 -0.47956,-0.0248 z m 2.71767,1.66605 h 0.0739 0.0796 c 0.61893,0 1.18889,0.14143 1.70945,0.42426 0.50416,0.30332 0.89956,0.67453 1.18649,1.11311 v 0.0243 c 0.0492,0.0492 0.0818,0.1007 0.0982,0.154 0.0166,0.0492 0.0248,0.0981 0.0248,0.14727 v 0.0496 c 0,0.082 -0.0326,0.15768 -0.0982,0.22738 -0.10247,0.0984 -0.20288,0.18248 -0.30128,0.25218 -0.0533,0.0328 -0.10479,0.0654 -0.15399,0.0982 -0.0492,0.0328 -0.0902,0.0596 -0.12299,0.0801 h -0.0553 -0.0982 c -0.15166,0 -0.30361,0.008 -0.45527,0.0243 -0.15166,0.0328 -0.29309,0.0738 -0.42426,0.12299 h -0.0796 l -0.0987,0.0491 c -0.16805,0.0533 -0.33579,0.0964 -0.50384,0.12919 -0.16805,0.0492 -0.3442,0.0739 -0.52865,0.0739 -0.0656,0 -0.13339,-0.008 -0.20309,-0.0243 -0.0656,0 -0.14128,-0.008 -0.22738,-0.0248 -0.0656,-0.21725 -0.11499,-0.4528 -0.14779,-0.70693 -0.0492,-0.23364 -0.0739,-0.47761 -0.0739,-0.73174 0,-0.26643 0.0247,-0.5267 0.0739,-0.78083 0.0328,-0.25003 0.0822,-0.4756 0.14779,-0.67645 h 0.10439 c 0.0164,0 0.0411,-0.008 0.0739,-0.0248 z" /><path
         id="path20"
         style="font-size:25.1836px;font-family:Jurassic;-inkscape-font-specification:Jurassic;stroke-width:34.6839"
         d="m 117.30757,209.61821 c -0.23364,0 -0.46921,0.008 -0.70694,0.0248 -0.25002,0.0164 -0.50241,0.0327 -0.75654,0.0491 -0.25003,0.0164 -0.49191,0.0327 -0.72554,0.0491 -0.25413,0.0166 -0.49758,0.0248 -0.73122,0.0248 -0.16805,0 -0.32789,-0.008 -0.47955,-0.0248 -0.16805,-0.0164 -0.33632,-0.0411 -0.50437,-0.0739 l -0.22737,6.57272 c 0.52056,0.0492 1.03269,0.0818 1.53685,0.0982 0.48777,0.0328 0.96731,0.0496 1.43868,0.0496 h 0.50436 c 0.16805,0 0.3342,-0.008 0.49816,-0.0248 0.33611,0 0.6721,-0.0163 1.00821,-0.0491 0.33611,-0.0164 0.67209,-0.0411 1.0082,-0.0739 0.53695,-0.25413 1.01649,-0.59853 1.43868,-1.03301 0.41809,-0.41809 0.76248,-0.87921 1.03301,-1.38338 0.0164,-0.0533 0.0327,-0.10428 0.0491,-0.15348 0.0164,-0.0328 0.0327,-0.0738 0.0491,-0.12299 0,-0.0533 0.008,-0.10479 0.0248,-0.15399 v -0.12299 c 0,-0.3525 -0.10884,-0.69639 -0.32608,-1.0325 -0.21724,-0.33611 -0.46121,-0.6479 -0.73174,-0.93483 -0.082,-0.10247 -0.15768,-0.19446 -0.22738,-0.27646 -0.082,-0.0656 -0.15767,-0.1418 -0.22737,-0.2279 -0.3689,-0.48777 -0.80531,-0.80535 -1.30948,-0.95291 -0.52056,-0.15169 -1.06582,-0.22738 -1.63556,-0.22738 z m -1.0573,1.81385 h 0.27647 c 0.38529,0 0.7544,0.051 1.10691,0.15347 0.3525,0.0984 0.68008,0.23982 0.9834,0.42427 v 0.0248 c 0.18443,0.13526 0.30957,0.28671 0.37517,0.45476 0.0533,0.18445 0.0801,0.3774 0.0801,0.57825 v 0.22738 c 0,0.0984 -0.008,0.19037 -0.0248,0.27647 -0.25413,0.41809 -0.57381,0.68677 -0.95911,0.80564 -0.38529,0.1353 -0.797,0.20308 -1.23558,0.20308 -0.082,0.0164 -0.16609,0.0164 -0.25219,0 h -0.19688 c -0.15166,0 -0.3031,-0.0105 -0.45476,-0.031 -0.11884,-0.18445 -0.20298,-0.37689 -0.25218,-0.57774 -0.0656,-0.18445 -0.0987,-0.38531 -0.0987,-0.60255 0,-0.10247 0.008,-0.21131 0.0248,-0.32608 0,-0.10247 0.008,-0.21289 0.0248,-0.33176 0.0328,-0.14756 0.0654,-0.29741 0.0982,-0.44907 0.0328,-0.15165 0.0654,-0.2952 0.0982,-0.43047 0.0205,-0.0656 0.0389,-0.13287 0.0553,-0.20257 0.0164,-0.0492 0.0332,-0.0986 0.0496,-0.14779 0.0984,-0.0164 0.19881,-0.0327 0.30128,-0.0491 z" /><path
         id="path16"
         style="font-size:25.1836px;font-family:Jurassic;-inkscape-font-specification:Jurassic;stroke-width:34.6839"
         d="m 117.83622,207.07263 c -0.43448,0 -0.87931,0.008 -1.33429,0.0248 -0.45497,0.0328 -0.90769,0.0654 -1.35857,0.0982 -0.47137,0.0533 -0.9325,0.0885 -1.38338,0.1049 -0.45497,0.0328 -0.90191,0.0491 -1.34049,0.0491 -0.38527,0 -0.77019,-0.0163 -1.15548,-0.0491 -0.4301,-0.0429 -1.31,-0.1049 -1.31,-0.1049 l -0.31528,18.69574 1.39739,0.0447 c 0.31971,-0.0166 0.64781,-0.0248 0.98392,-0.0248 0.56975,0 1.1497,0.0247 1.73994,0.0739 0.56975,0.0492 1.15601,0.10018 1.75855,0.15348 0.59024,0.0492 1.17809,0.0902 1.76423,0.12299 0.56975,0.0492 1.13971,0.0739 1.70946,0.0739 1.41412,0 2.7155,-0.24187 3.90415,-0.72554 1.17638,-0.47137 2.10074,-1.47986 2.77296,-3.02514 0.082,-0.18445 0.14979,-0.36848 0.20309,-0.55293 0.0328,-0.18445 0.0491,-0.36112 0.0491,-0.52917 0,-0.53695 -0.16825,-1.03279 -0.50436,-1.48777 -0.33611,-0.43448 -0.70522,-0.86248 -1.10691,-1.28467 -0.0166,-0.0164 -0.0243,-0.0332 -0.0243,-0.0496 -0.0164,-0.0164 -0.0348,-0.0327 -0.0553,-0.0491 -0.21725,-0.23363 -0.42651,-0.47761 -0.62735,-0.73174 -0.21725,-0.23363 -0.4018,-0.4855 -0.55346,-0.75603 l 2.34301,-3.14813 c 0.11885,-0.18445 0.20247,-0.369 0.25167,-0.55345 0.0328,-0.18445 0.0496,-0.3606 0.0496,-0.52865 v -0.0491 c 0,-0.45497 -0.14355,-0.87509 -0.43047,-1.26039 -0.29922,-0.40169 -0.62521,-0.78709 -0.97772,-1.156 -0.0861,-0.0861 -0.16177,-0.17018 -0.22737,-0.25218 l -0.25218,-0.25167 c -0.0492,-0.0656 -0.10018,-0.13339 -0.15348,-0.20309 -0.0656,-0.0492 -0.1234,-0.10858 -0.1726,-0.17828 -0.67222,-1.02062 -1.49616,-1.69102 -2.47169,-2.01073 -0.9878,-0.31971 -2.04521,-0.47956 -3.17241,-0.47956 z m -1.53376,4.23282 h 0.27647 c 0.38529,0 0.7544,0.051 1.10691,0.15348 0.3525,0.0984 0.68008,0.23981 0.9834,0.42426 v 0.0248 c 0.18443,0.13526 0.30957,0.2867 0.37517,0.45475 0.0533,0.18445 0.0801,0.37741 0.0801,0.57826 v 0.22737 c 0,0.0984 -0.008,0.19037 -0.0248,0.27647 -0.25413,0.41809 -0.57382,0.68677 -0.95912,0.80564 -0.38529,0.13529 -0.797,0.20309 -1.23558,0.20309 -0.082,0.0164 -0.16608,0.0164 -0.25218,0 h -0.19689 c -0.15166,0 -0.30309,-0.0105 -0.45475,-0.031 -0.11884,-0.18445 -0.20298,-0.37689 -0.25218,-0.57774 -0.0656,-0.18445 -0.0987,-0.38531 -0.0987,-0.60255 0,-0.10247 0.008,-0.21133 0.0248,-0.32608 0,-0.10247 0.008,-0.21289 0.0248,-0.33176 0.0328,-0.14756 0.0654,-0.29741 0.0982,-0.44907 0.0328,-0.15165 0.0654,-0.29519 0.0982,-0.43046 0.0205,-0.0656 0.0389,-0.13287 0.0553,-0.20257 0.0164,-0.0492 0.0332,-0.0986 0.0496,-0.1478 0.0984,-0.0164 0.1988,-0.0327 0.30127,-0.0491 z m -0.29249,7.16752 h 0.0739 0.0801 c 0.61893,0 1.1889,0.14143 1.70946,0.42426 0.50414,0.30332 0.89956,0.67453 1.18649,1.11311 v 0.0243 c 0.0492,0.0492 0.0818,0.1007 0.0982,0.154 0.0168,0.0492 0.0248,0.0981 0.0248,0.14727 v 0.0496 c 0,0.082 -0.0331,0.15768 -0.0987,0.22738 -0.10247,0.0984 -0.20235,0.18248 -0.30075,0.25218 -0.0533,0.0328 -0.10532,0.0654 -0.15452,0.0982 -0.0492,0.0328 -0.0902,0.0596 -0.12299,0.0801 h -0.0553 -0.0982 c -0.15166,0 -0.30362,0.008 -0.45527,0.0243 -0.15166,0.0328 -0.2931,0.0738 -0.42427,0.12299 h -0.0796 l -0.0987,0.0491 c -0.16805,0.0533 -0.3358,0.0964 -0.50385,0.12919 -0.16805,0.0492 -0.3442,0.0739 -0.52865,0.0739 -0.0656,0 -0.13338,-0.008 -0.20308,-0.0243 -0.0656,0 -0.14128,-0.008 -0.22738,-0.0248 -0.0656,-0.21725 -0.115,-0.4528 -0.1478,-0.70693 -0.0492,-0.23364 -0.0739,-0.47761 -0.0739,-0.73174 0,-0.26643 0.0247,-0.5267 0.0739,-0.78083 0.0328,-0.25003 0.0822,-0.4756 0.1478,-0.67645 h 0.10439 c 0.0164,0 0.0411,-0.008 0.0739,-0.0248 z"
         sodipodi:nodetypes="scccsccccscccscccsccccccccsscccccccscsccccssccccsccsccsccccccsccccssccsccscccccscccsccsc" /><path
         style="font-size:25.1836px;font-family:Jurassic;-inkscape-font-specification:Jurassic;stroke-width:34.6839"
         d="m 97.684787,225.68694 c 0.131167,0.0328 0.27258,0.0492 0.42424,0.0492 0.13526,0.0164 0.270523,0.0246 0.40579,0.0246 0.3689,0 0.729603,-0.0246 1.08211,-0.0738 0.352502,-0.0328 0.705003,-0.0738 1.057513,-0.12297 0.20085,-0.0328 0.40169,-0.0676 0.60254,-0.10452 0.18445,-0.0164 0.37914,-0.0328 0.58409,-0.0492 0.16805,-0.0164 0.34431,-0.0328 0.52876,-0.0492 h 0.55335 0.42423 l 0.40579,0.0492 c 0.16806,0.48777 0.33612,0.96735 0.50417,1.43872 0.15166,0.48367 0.31152,0.96938 0.47957,1.45715 0.31561,0.95914 0.64147,1.91623 0.97758,2.87128 0.33611,0.97553 0.68862,1.94082 1.05752,2.89586 0.55745,-0.93865 1.00218,-1.94492 1.33419,-3.01883 0.58062,-1.83988 1.31759,-3.57701 1.5617,-5.5704 0.18445,-0.0328 0.37914,-0.0574 0.58409,-0.0738 h 0.55335 c 0.3689,0 0.7378,0.0164 1.1067,0.0492 0.35251,0.0369 0.71321,0.0717 1.08211,0.10452 0.3689,0.0492 0.746,0.0902 1.13129,0.12297 0.37334,0.0328 1.7559,0.06 1.7559,0.06 0,0 -4.10556,12.29481 -6.18877,18.42811 -0.31561,0.15166 -0.63328,0.24388 -0.95299,0.27667 -0.33611,0.0492 -0.67222,0.0738 -1.00833,0.0738 -0.21724,0 -0.42628,-0.008 -0.62713,-0.0246 -0.22134,0 -0.44063,-0.008 -0.65787,-0.0246 -0.21724,0 -0.43653,-0.008 -0.65788,-0.0246 -0.21724,-0.0164 -0.43448,-0.0246 -0.65172,-0.0246 h -0.20289 c -0.082,0 -0.15781,0.008 -0.22749,0.0246 h -0.22134 c -0.0697,0.0164 -0.14552,0.0246 -0.22749,0.0246 -0.63943,-1.52889 -1.24401,-3.08238 -1.81376,-4.66045 -0.59024,-1.57807 -1.16204,-3.15615 -1.71539,-4.73422 -0.0492,-0.15166 -0.10044,-0.29307 -0.15371,-0.42423 -0.0492,-0.13527 -0.0984,-0.27053 -0.14756,-0.40579 -0.487769,-1.37723 -0.983736,-2.75446 -1.487903,-4.13169 -0.50006,-1.37723 -1.028817,-2.73601 -1.58627,-4.07635 z"
         id="path21"
         sodipodi:nodetypes="ccscccccccccccccccsccccccscccsscccccccccc" /><path
         id="path13-6-8"
         style="font-size:25.1836px;font-family:Jurassic;-inkscape-font-specification:Jurassic;stroke-width:34.6839"
         d="m 107.16526,206.85038 c -2.30275,0.0256 -4.29954,0.77953 -6.40529,2.37092 -0.70501,0.85667 -1.225554,1.77261 -1.561664,2.74815 -0.135263,0.26643 -0.227279,0.5267 -0.276469,0.78083 -0.06968,0.26643 -0.104387,0.5183 -0.104387,0.75603 0,0.53696 0.11673,1.0496 0.350366,1.53737 0.237735,0.48367 0.508006,0.9611 0.811316,1.43247 0.0492,0.0656 0.0986,0.13339 0.147798,0.20309 0.0328,0.0656 0.0759,0.13077 0.12919,0.19637 0.35251,0.52056 0.67798,1.05951 0.9772,1.61696 0.28692,0.55334 0.43046,1.15591 0.43046,1.80764 v 0.0801 0.0982 c -0.0166,0.0328 -0.0243,0.0575 -0.0243,0.0739 v 0.10438 c -0.20138,1.64792 -1.39533,2.94623 -3.549036,3.02364 l 0.316263,4.3569 c 6.837453,-0.62459 11.477653,-5.4348 10.057143,-8.89259 -0.23364,-0.53695 -0.49392,-1.07432 -0.78084,-1.61127 -0.0656,-0.10247 -0.12498,-0.20287 -0.17828,-0.30127 -0.0492,-0.0861 -0.0981,-0.16967 -0.14728,-0.25167 -0.31971,-0.59024 -0.62309,-1.18702 -0.91002,-1.78955 -0.28284,-0.60254 -0.45106,-1.23141 -0.50436,-1.88723 0.79094,-2.74959 1.37172,-2.01919 4.01629,-2.02519 l 0.57464,-4.02198 c -1.21235,-0.27897 -2.32208,-0.41781 -3.36878,-0.40618 z"
         sodipodi:nodetypes="scccscccccsccscccccccccccss" /><path
         style="font-size:25.1836px;fill:#ffd42a;stroke-width:9.17678"
         d="m 115.70893,208.92495 c -0.50417,0 -1.00842,0.0268 -1.51257,0.0801 -0.52055,0.0656 -1.04111,0.16602 -1.56167,0.30127 v 14.30094 c 0.35251,0.0164 0.71321,0.0327 1.08211,0.0491 0.35251,0.0205 0.7048,0.031 1.0573,0.031 0.3689,0.0164 0.72959,0.0327 1.0821,0.0491 0.35661,0.0163 0.71152,0.0243 1.06402,0.0243 0.66812,0 1.3217,-0.0426 1.96112,-0.12868 0.63943,-0.0656 1.2604,-0.20704 1.86294,-0.42426 0.43858,-0.13527 0.79927,-0.39554 1.0821,-0.78083 0.28692,-0.3689 0.46305,-0.76483 0.52865,-1.18701 0,-0.0492 0.008,-0.0981 0.0248,-0.14728 v -0.12919 c -0.082,-0.63533 -0.33436,-1.2479 -0.75655,-1.83813 -0.43447,-0.56975 -0.90349,-1.09029 -1.40766,-1.56166 -0.20085,-0.18445 -0.40171,-0.36111 -0.60255,-0.52917 -0.20085,-0.16805 -0.38541,-0.31738 -0.55345,-0.44855 0.705,-0.22134 1.34227,-0.59257 1.91202,-1.11311 0.56975,-0.50417 1.03929,-1.08201 1.40819,-1.73374 0.0369,-0.11887 0.0637,-0.2293 0.0801,-0.33177 v -0.30127 c 0,-0.50415 -0.15195,-0.94899 -0.45527,-1.33429 -0.30331,-0.38529 -0.63141,-0.76229 -0.98391,-1.13119 -0.0328,-0.0164 -0.057,-0.0411 -0.0734,-0.0739 -0.0164,-0.0205 -0.0332,-0.0389 -0.0496,-0.0553 -0.16805,-0.16805 -0.3279,-0.33632 -0.47956,-0.50437 -0.16805,-0.16395 -0.31108,-0.3401 -0.42995,-0.52865 v -0.0248 c -0.70501,-0.15166 -1.41011,-0.27625 -2.11512,-0.37465 -0.72141,-0.1025 -1.4428,-0.154 -2.1642,-0.154 z m 1.61075,0.60875 c 0.56974,0 1.115,0.0757 1.63556,0.22737 0.50417,0.14756 0.94058,0.46515 1.30948,0.95292 0.0697,0.0861 0.14538,0.16229 0.22738,0.22789 0.0697,0.082 0.14537,0.174 0.22737,0.27647 0.27053,0.28693 0.5145,0.59872 0.73174,0.93483 0.21724,0.33611 0.32608,0.67999 0.32608,1.03249 v 0.12299 c -0.0168,0.0492 -0.0248,0.1007 -0.0248,0.154 -0.0164,0.0492 -0.0327,0.0902 -0.0491,0.12299 -0.0164,0.0492 -0.0327,0.10018 -0.0491,0.15348 -0.27053,0.50417 -0.61492,0.96528 -1.03301,1.38337 -0.42219,0.43448 -0.90173,0.77889 -1.43868,1.03302 -0.3361,0.0328 -0.67209,0.0575 -1.0082,0.0739 -0.33611,0.0328 -0.6721,0.0491 -1.00821,0.0491 -0.16396,0.0168 -0.33011,0.0248 -0.49816,0.0248 h -0.50436 c -0.47137,0 -0.9509,-0.0168 -1.43867,-0.0496 -0.50416,-0.0164 -1.0163,-0.049 -1.53686,-0.0982 l 0.22738,-6.57273 c 0.16804,0.0328 0.33631,0.0575 0.50436,0.0739 0.15165,0.0168 0.3115,0.0248 0.47955,0.0248 0.23364,0 0.4771,-0.008 0.73123,-0.0248 0.23363,-0.0164 0.4755,-0.0327 0.72553,-0.0491 0.25413,-0.0164 0.50653,-0.0327 0.75655,-0.0491 0.23772,-0.0168 0.47329,-0.0248 0.70693,-0.0248 z m -4.02714,7.27346 c 0.15166,0.0168 0.3115,0.0248 0.47955,0.0248 h 0.49816 0.91003 c 0.30331,0.0205 0.61249,0.0389 0.9281,0.0553 1.07801,0.082 2.11121,0.31545 3.09904,0.70074 0.99193,0.3894 1.72333,1.15391 2.1947,2.2934 0.082,0.16806 0.15557,0.3526 0.22117,0.55345 0.0533,0.20084 0.0801,0.4117 0.0801,0.63304 0,0.13117 -0.0163,0.2647 -0.0491,0.39997 -0.0533,0.13526 -0.13739,0.26199 -0.25218,0.38086 -0.57384,0.53696 -1.22163,0.89765 -1.94304,1.0821 -0.7214,0.18448 -1.4754,0.27699 -2.26239,0.27699 -0.15166,0 -0.3031,-0.008 -0.45475,-0.0248 h -0.45527 c -0.26643,-0.0164 -0.53459,-0.0432 -0.80512,-0.0801 -0.26643,-0.0164 -0.53511,-0.0327 -0.80564,-0.0491 -0.25003,-0.0164 -0.50241,-0.0411 -0.75654,-0.0739 -0.25003,-0.0164 -0.49349,-0.0327 -0.73122,-0.0491 z"
         id="path23"
         sodipodi:nodetypes="sccccccsccccccccsccccssccsccccsssccccssccccccccssccccscccsscsccccccsccssccccccc" /><path
         style="font-size:25.1836px;fill:#ffd42a;stroke-width:9.17678"
         d="m 110.63073,231.05178 c -1.38986,4.1944 -3.53937,10.19213 -3.53937,10.19213 h -0.30747 c -0.20085,-0.50417 -0.3933,-1.0163 -0.57774,-1.53686 -0.20085,-0.50417 -0.39329,-1.00841 -0.57775,-1.51257 -0.10247,-0.25003 -0.19501,-0.5103 -0.27698,-0.78083 -0.10248,-0.25003 -0.19449,-0.50241 -0.27647,-0.75654 -0.56975,-1.54118 -1.14181,-3.076 -1.71566,-4.60489 -0.49121,-1.28126 -1.00808,-2.55032 -1.54822,-3.80855 -0.22154,0.0682 -0.44402,0.13049 -0.66818,0.18603 l 5.06326,13.51494 h 1.33428 c 0.36891,-1.1231 0.7559,-2.24622 1.16169,-3.3693 0.83444,-2.39975 1.26823,-3.03378 2.72277,-7.91531 l 0.98953,-3.32092 -0.50631,-0.12734 c 0,0 0.11248,-0.35438 -1.27738,3.84001 z"
         id="path31"
         sodipodi:nodetypes="zccccccccccccsccz" /><path
         style="font-size:25.1836px;fill:#ffd42a;stroke-width:9.17678"
         d="m 97.037709,226.04587 c 0,0 -2.256221,0.12512 -2.563151,0.47232 -0.15166,0.18445 -0.295195,0.38741 -0.430465,0.60875 -0.0168,0.0164 -0.0248,0.0332 -0.0248,0.0496 -0.11389,0.11389 -0.07788,0.18051 -0.276469,0.45475 -0.0984,0.13117 -0.215623,0.2479 -0.350883,0.35037 -0.27053,0.3689 -0.454538,0.73801 -0.552938,1.10691 -0.11888,0.3689 -0.178284,0.72961 -0.178284,1.0821 0,0.63943 0.141434,1.2704 0.424264,1.89343 0.286928,0.61893 0.5982,1.23991 0.93431,1.86293 0.0861,0.14756 0.170181,0.28899 0.252181,0.42426 0.0697,0.15165 0.145376,0.30361 0.227376,0.45527 0.25003,0.47137 0.459302,0.9404 0.627352,1.40767 0.16807,0.48777 0.24918,0.97572 0.251664,1.46348 0.01441,2.82896 -8.498014,4.43761 -8.498014,4.43761 l 0.01798,0.60744 c 0,0 8.982607,-1.60119 9.211772,-4.89726 0,-0.63532 -0.141435,-1.28943 -0.424263,-1.96164 -0.28692,-0.65583 -0.598202,-1.3278 -0.93431,-2.01641 -0.0656,-0.13117 -0.133389,-0.26472 -0.203089,-0.39998 -0.0656,-0.13527 -0.132871,-0.2704 -0.202571,-0.40566 -0.23363,-0.50417 -0.442902,-1.0063 -0.627352,-1.50636 -0.18445,-0.50417 -0.293278,-1 -0.326078,-1.48777 0.0164,-0.38529 0.125238,-0.75441 0.326078,-1.10691 0.18445,-0.33611 0.393722,-0.66369 0.627352,-0.9834 0.0697,-0.0861 0.136973,-0.17018 0.202571,-0.25218 0.0533,-0.0697 0.104796,-0.14538 0.153996,-0.22738 0.13526,-0.20085 0.458334,-0.55173 0.708484,-0.67386 0.35846,-0.15769 1.60662,-0.35657 1.60662,-0.35657 z"
         id="path30"
         sodipodi:nodetypes="cccccccscccccsccsccccccccccccc" /><path
         style="font-size:25.1836px;fill:#ffd42a;stroke-width:9.17678"
         d="m 105.69825,208.9062 c -1.72549,0.51792 -2.79163,2.47614 -3.12237,3.39528 -0.11888,0.3689 -0.17828,0.72961 -0.17828,1.0821 0,0.63943 0.14143,1.2704 0.42426,1.89343 0.28693,0.61893 0.5982,1.23991 0.93431,1.86293 0.0861,0.14756 0.1707,0.289 0.2527,0.42427 0.0697,0.15165 0.14486,0.30362 0.22686,0.45526 0.25003,0.47137 0.4593,0.9404 0.62735,1.40767 0.16807,0.48777 0.25166,0.97571 0.25166,1.46348 0,0.48777 -0.12462,0.98359 -0.37465,1.48776 -0.25003,0.50006 -0.67855,1.0185 -1.28519,1.55546 l 0.25218,0.2279 c 0.79109,-0.45087 1.34423,-0.94514 1.65985,-1.48208 0.31971,-0.52056 0.48007,-1.06741 0.48007,-1.64125 0,-0.63532 -0.14195,-1.28943 -0.42478,-1.96164 -0.28692,-0.65581 -0.5982,-1.3278 -0.93431,-2.01641 -0.0656,-0.13117 -0.13339,-0.26472 -0.20309,-0.39998 -0.0656,-0.13527 -0.13287,-0.2704 -0.20257,-0.40566 -0.23363,-0.50415 -0.4429,-1.0063 -0.62735,-1.50636 -0.18445,-0.50417 -0.29328,-1 -0.32608,-1.48777 0.0164,-0.38529 0.16052,-1.13272 0.55696,-1.84837 0.39643,-0.71565 0.99101,-1.45077 2.41013,-1.93979 1.41911,-0.48901 3.60822,0.0259 3.60822,0.0259 l 0.0356,-0.63823 c 0,0 -2.316,-0.47182 -4.04149,0.0461 z"
         id="path24"
         sodipodi:nodetypes="zcscccccsccccscccccczzccz" /></g><g
       id="g37"
       transform="matrix(0.39152697,0.01032332,-0.01032332,0.39152697,18.168973,157.95574)"><path
         inkscape:connector-curvature="0"
         id="path2755"
         d="m 463.25231,75.235599 -104.55529,-3.897898 -2.75147,1.375734 0.91717,208.881295 108.91177,-2.75144 z"
         style="vector-effect:none;fill:#808080;fill-opacity:1;fill-rule:nonzero;stroke:none;stroke-width:0.767924;stroke-linecap:round;stroke-linejoin:round;stroke-miterlimit:4;stroke-dasharray:none;stroke-dashoffset:0;stroke-opacity:1;paint-order:stroke fill markers" /><path
         id="path2757"
         d="m 101.7904,163.08062 a 29.037224,28.032096 0 0 1 12.70518,2.8484 c 0.99224,1.2618 1.87981,2.6089 2.64634,4.03128 2.00718,3.72456 4.89344,10.67932 6.02496,14.97427 0.41703,1.58299 2.24356,4.90988 3.08922,8.89456 0.89453,4.21494 0.31694,8.7263 -0.47749,10.98071 -0.29737,0.84378 -1.48048,3.64744 -2.3182,4.9103 a 29.037224,28.032096 0 0 1 -0.81701,0.89812 c -0.0137,0.0137 -0.0271,0.0277 -0.0408,0.0414 a 29.037224,28.032096 0 0 1 -2.09084,1.87999 c -0.009,0.007 -0.0178,0.0149 -0.0269,0.0222 a 29.037224,28.032096 0 0 1 -15.79542,6.44303 29.037224,28.032096 0 0 1 -2.89906,0.14004 29.037224,28.032096 0 0 1 -2.026236,-0.0692 c -0.019,-10e-4 -0.0378,-0.003 -0.0568,-0.005 a 29.037224,28.032096 0 0 1 -13.60072,-4.36719 c -0.002,-0.001 -0.004,-0.002 -0.005,-0.003 a 29.037224,28.032096 0 0 1 -0.005,-0.004 29.037224,28.032096 0 0 1 -2.33215,-1.61023 c -0.0127,-0.01 -0.0256,-0.0192 -0.0383,-0.0289 a 29.037224,28.032096 0 0 1 -2.14714,-1.82058 c -0.0152,-0.0142 -0.0298,-0.0291 -0.045,-0.0434 a 29.037224,28.032096 0 0 1 -1.90841,-1.97715 c -0.0278,-0.0317 -0.0556,-0.0633 -0.0832,-0.0951 a 29.037224,28.032096 0 0 1 -6.788725,-18.00923 29.037224,28.032096 0 0 1 29.036981,-28.03238 z"
         style="vector-effect:none;fill:url(#radialGradient2799);fill-opacity:1;fill-rule:nonzero;stroke:none;stroke-width:0.0807715;stroke-linecap:round;stroke-linejoin:round;stroke-miterlimit:4;stroke-dasharray:none;stroke-dashoffset:0;stroke-opacity:1;paint-order:stroke fill markers;filter:url(#filter1788)"
         inkscape:connector-curvature="0"
         transform="matrix(1.4511959,0,0,1.4511959,250.89036,-48.598318)" /><path
         sodipodi:nodetypes="cccccccccccc"
         inkscape:connector-curvature="0"
         id="path2759"
         d="m 414.39146,182.68923 c -24.44479,1.9e-4 -44.26119,19.8166 -44.2614,44.2614 0.0145,10.33733 3.646,20.34369 10.26575,28.28346 0.11493,0.17667 0.23187,0.35166 0.35324,0.52196 7.26023,8.41446 17.57191,14.07355 29.20284,15.23251 l 0.0443,0.004 c 1.44632,0.14266 2.91161,0.21971 4.39534,0.21976 16.65739,1.4e-4 31.16552,-9.20132 38.81167,-22.82553 3.38919,-7.00074 11.48591,-12.96421 14.87554,-20.8637 1.68444,-3.92551 2.64466,-12.5756 0.37947,-17.89625 -6.74175,-15.83581 -21.98785,-26.93827 -40.28527,-26.93812 z"
         style="vector-effect:none;fill:#6d6d6b;fill-opacity:1;fill-rule:nonzero;stroke:none;stroke-width:0.383962;stroke-linecap:round;stroke-linejoin:round;stroke-miterlimit:4;stroke-dasharray:none;stroke-dashoffset:0;stroke-opacity:1;paint-order:stroke fill markers" /><path
         sodipodi:nodetypes="ssssscscs"
         inkscape:connector-curvature="0"
         id="path2761"
         d="m 468.07852,227.52384 c 1.68445,-3.92552 2.64446,-12.57584 0.37927,-17.89647 -6.74176,-15.8358 -21.9875,-26.9383 -40.28492,-26.93814 -22.39018,1.9e-4 -40.8973,16.6254 -43.85037,38.20466 -0.271,1.98021 -1.9418,6.11663 -2.92406,7.92125 -5.24792,9.64148 -5.19592,20.56188 -0.64937,26.94125 8.17201,9.47112 20.20822,15.45629 33.64239,15.45641 16.65739,1.4e-4 31.16577,-9.20132 38.81191,-22.82553 3.3892,-7.00074 11.48552,-12.96394 14.87515,-20.86343 z"
         style="vector-effect:none;fill:#9e9f9d;fill-opacity:1;fill-rule:nonzero;stroke:none;stroke-width:0.383962;stroke-linecap:round;stroke-linejoin:round;stroke-miterlimit:4;stroke-dasharray:none;stroke-dashoffset:0;stroke-opacity:1;paint-order:stroke fill markers" /><path
         sodipodi:nodetypes="ssscsscccs"
         inkscape:connector-curvature="0"
         id="path2763"
         d="m 458.5301,238.90916 c 2.86202,-3.32368 5.2156,-5.84309 7.75116,-10.00958 2.16488,-3.55737 3.82953,-11.82478 2.23015,-16.31528 -5.90401,-16.57626 -21.73554,-28.44243 -40.33854,-28.44248 -20.86251,1e-4 -38.23937,14.92375 -42.0376,34.67802 -0.50614,2.63244 -1.65401,8.89364 -3.85169,12.26513 -3.72381,5.71272 -4.40412,16.56364 -2.19828,21.27543 7.75281,10.6118 20.23687,17.39898 34.30616,17.39903 15.6438,2.1e-4 29.32786,-8.39073 36.69346,-20.84156 2.07199,-3.59841 4.75708,-6.88694 7.44518,-10.00871 z"
         style="vector-effect:none;fill:#202823;fill-opacity:1;fill-rule:nonzero;stroke:none;stroke-width:0.371359;stroke-linecap:round;stroke-linejoin:round;stroke-miterlimit:4;stroke-dasharray:none;stroke-dashoffset:0;stroke-opacity:1;paint-order:stroke fill markers" /><path
         inkscape:connector-curvature="0"
         style="vector-effect:none;fill:url(#radialGradient2801);fill-opacity:1;fill-rule:nonzero;stroke:none;stroke-width:0.0807715;stroke-linecap:round;stroke-linejoin:round;stroke-miterlimit:4;stroke-dasharray:none;stroke-dashoffset:0;stroke-opacity:1;paint-order:stroke fill markers;filter:url(#filter1768)"
         d="m 101.7904,89.768935 a 29.037224,28.032096 0 0 1 12.70518,2.848399 c 0.99224,1.2618 1.87981,2.6089 2.64634,4.03128 2.00718,3.724556 4.89344,10.679326 6.02496,14.974286 0.41703,1.58299 2.24356,4.90988 3.08922,8.89456 0.89453,4.21494 0.31694,8.7263 -0.47749,10.98071 -0.29737,0.84378 -1.48048,3.64744 -2.3182,4.9103 a 29.037224,28.032096 0 0 1 -0.81701,0.89812 c -0.0137,0.0137 -0.0271,0.0277 -0.0408,0.0414 a 29.037224,28.032096 0 0 1 -2.09084,1.87999 c -0.009,0.007 -0.0178,0.0149 -0.0269,0.0222 a 29.037224,28.032096 0 0 1 -15.79542,6.44303 29.037224,28.032096 0 0 1 -2.89906,0.14004 29.037224,28.032096 0 0 1 -2.026236,-0.0692 c -0.019,-0.001 -0.0378,-0.003 -0.0568,-0.005 a 29.037224,28.032096 0 0 1 -13.60072,-4.36719 c -0.002,-0.001 -0.004,-0.002 -0.005,-0.003 a 29.037224,28.032096 0 0 1 -0.005,-0.004 29.037224,28.032096 0 0 1 -2.33215,-1.61023 c -0.0127,-0.01 -0.0256,-0.0192 -0.0383,-0.0289 a 29.037224,28.032096 0 0 1 -2.14714,-1.82058 c -0.0152,-0.0142 -0.0298,-0.0291 -0.045,-0.0434 a 29.037224,28.032096 0 0 1 -1.90841,-1.97715 c -0.0278,-0.0317 -0.0556,-0.0633 -0.0832,-0.0951 A 29.037224,28.032096 0 0 1 72.753699,117.80027 29.037224,28.032096 0 0 1 101.79068,89.767875 Z"
         id="path2765"
         transform="matrix(1.4511959,0,0,1.4511959,250.89036,-48.598318)" /><path
         sodipodi:nodetypes="scsscssss"
         inkscape:connector-curvature="0"
         id="path2767"
         d="m 414.64346,165.49794 c -24.28833,0 -43.97793,-19.00801 -43.97793,-42.4556 0,-5.18482 0.99633,-10.14003 2.78039,-14.95838 7.72238,-20.856264 31.37804,-32.148526 38.46042,-35.095487 5.02078,-2.089111 10.41852,-3.060398 16.03553,-3.060398 23.12517,-2.6e-5 40.49593,17.066066 40.49565,39.390755 -7e-5,8.07222 -2.73465,11.34147 -6.15793,18.1197 -2.12137,4.2003 -5.72181,9.98626 -8.29214,14.62473 -7.63926,13.78597 -22.1898,23.43468 -39.34399,23.43468 z"
         style="vector-effect:none;fill:#6a6a68;fill-opacity:1;fill-rule:nonzero;stroke:none;stroke-width:0.767924;stroke-linecap:round;stroke-linejoin:round;stroke-miterlimit:4;stroke-dasharray:none;stroke-dashoffset:0;stroke-opacity:1;paint-order:stroke fill markers" /><path
         sodipodi:nodetypes="ccccssscsssscc"
         inkscape:connector-curvature="0"
         id="path2769"
         d="m 383.82194,150.78308 c 7.69206,7.96127 18.65465,12.93915 30.82152,12.93902 14.53036,-1e-4 27.34298,-7.10004 34.91851,-17.9023 l 0.95422,-1.35201 c 1.13543,-2.1975 2.37775,-3.52889 3.53766,-5.07024 3.82002,-5.07616 5.42638,-8.15234 7.70052,-12.69064 2.5824,-5.15337 5.7499,-11.39412 5.74999,-17.50274 1.3e-4,-21.64369 -17.14273,-38.043046 -39.56249,-38.043211 -15.67212,1.16e-4 -28.81129,8.631145 -35.57661,21.184977 -2.91283,5.405061 -7.10152,15.497784 -8.74357,21.730604 -0.60519,2.29723 -3.25541,7.12498 -4.48263,12.90752 -1.29814,6.11672 -0.4601,12.66354 0.69279,15.93513 0.45156,1.28139 2.31224,5.68394 3.53152,7.37224 z"
         style="vector-effect:none;fill:#322a28;fill-opacity:1;fill-rule:nonzero;stroke:none;stroke-width:0.383962;stroke-linecap:round;stroke-linejoin:round;stroke-miterlimit:4;stroke-dasharray:none;stroke-dashoffset:0;stroke-opacity:1;paint-order:stroke fill markers" /><path
         id="path2771"
         d="m 414.64346,82.361858 a 42.138701,40.680061 0 0 0 -18.43772,4.133593 c -1.43991,1.831111 -2.72795,3.786029 -3.84034,5.850175 -2.91281,5.405066 -7.10134,15.497794 -8.74339,21.730614 -0.60522,2.29723 -3.25585,7.12518 -4.48307,12.90775 -1.29815,6.11671 -0.45997,12.66357 0.69293,15.93516 0.43155,1.2245 2.14847,5.29315 3.36417,7.1258 a 42.138701,40.680061 0 0 0 1.18562,1.30337 c 0.02,0.02 0.0393,0.0402 0.0592,0.0599 a 42.138701,40.680061 0 0 0 3.03422,2.72823 c 0.0131,0.0102 0.0257,0.0215 0.039,0.0322 a 42.138701,40.680061 0 0 0 22.92224,9.3501 42.138701,40.680061 0 0 0 4.2071,0.20324 42.138701,40.680061 0 0 0 2.94046,-0.10042 c 0.0276,0 0.0549,-0.004 0.0824,-0.007 a 42.138701,40.680061 0 0 0 19.73732,-6.33765 c 0.004,0 0.004,-0.004 0.007,-0.004 a 42.138701,40.680061 0 0 0 0.007,-0.006 42.138701,40.680061 0 0 0 3.3844,-2.33676 c 0.0184,-0.0145 0.0373,-0.028 0.0556,-0.0419 a 42.138701,40.680061 0 0 0 3.11593,-2.64201 c 0.0219,-0.0208 0.0433,-0.0422 0.0653,-0.063 a 42.138701,40.680061 0 0 0 2.76947,-2.86923 c 0.0403,-0.046 0.0807,-0.0919 0.12074,-0.13801 a 42.138701,40.680061 0 0 0 9.85217,-26.13363 42.138701,40.680061 0 0 0 -42.13836,-40.68049 z"
         style="vector-effect:none;fill:#55170a;fill-opacity:1;fill-rule:nonzero;stroke:none;stroke-width:0.117215;stroke-linecap:round;stroke-linejoin:round;stroke-miterlimit:4;stroke-dasharray:none;stroke-dashoffset:0;stroke-opacity:1;paint-order:stroke fill markers"
         inkscape:connector-curvature="0" /><path
         id="path2773"
         d="m 414.64346,84.724874 a 39.690944,38.317034 0 0 0 -21.36991,6.033157 c -0.31281,0.522864 -0.6184,1.04997 -0.90815,1.587595 -2.91281,5.405066 -7.10134,15.497794 -8.74339,21.730614 -0.60522,2.29723 -3.25585,7.12518 -4.48307,12.90775 -0.98206,4.62735 -0.74047,9.49803 -0.066,13.01344 a 39.690944,38.317034 0 0 0 35.57052,21.36166 39.690944,38.317034 0 0 0 39.69058,-38.31675 39.690944,38.317034 0 0 0 -39.69058,-38.317466 z"
         style="vector-effect:none;fill:#000000;fill-opacity:1;fill-rule:nonzero;stroke:none;stroke-width:0.116136;stroke-linecap:round;stroke-linejoin:round;stroke-miterlimit:4;stroke-dasharray:none;stroke-dashoffset:0;stroke-opacity:1;paint-order:stroke fill markers"
         inkscape:connector-curvature="0" /><path
         id="path2777"
         d="m 427.31122,70.186804 c -15.67211,1.16e-4 -28.81118,8.630822 -35.57651,21.184667 -2.91282,5.405048 -7.10135,15.497809 -8.74341,21.730609 -0.60519,2.29724 -3.25583,7.12518 -4.48306,12.90772 -1.29815,6.11675 -0.45991,12.66361 0.69295,15.93519 0.45155,1.28141 2.31214,5.68348 3.53141,7.37178 l 0.0554,0.0592 c -1.1629,-2.01341 -2.57112,-5.36414 -2.9562,-6.45686 -1.15289,-3.27159 -1.99107,-9.81844 -0.69293,-15.93516 1.22722,-5.78255 3.87786,-10.61052 4.48305,-12.90775 1.64206,-6.23281 5.83058,-16.325546 8.74341,-21.730611 6.76532,-12.553834 19.90436,-21.184551 35.57648,-21.184667 14.25767,1.04e-4 26.37935,6.633724 33.31698,17.029323 C 454.4403,77.235883 442.00986,70.18691 427.31114,70.186805 Z"
         style="vector-effect:none;fill:#808080;fill-opacity:1;fill-rule:nonzero;stroke:none;stroke-width:0.117215;stroke-linecap:round;stroke-linejoin:round;stroke-miterlimit:4;stroke-dasharray:none;stroke-dashoffset:0;stroke-opacity:1;paint-order:stroke fill markers"
         inkscape:connector-curvature="0" /><path
         sodipodi:nodetypes="cccscc"
         inkscape:connector-curvature="0"
         id="path2779"
         d="m 386.38324,101.03053 c -9.5735,9.44332 -10.03881,16.84324 -8.41792,28.79567 0.10187,-1.26896 0.27449,-2.55144 0.54292,-3.8164 1.22723,-5.78251 3.87787,-10.61048 4.48306,-12.90772 0.71007,-2.69525 1.90658,-6.1139 3.25991,-9.56155 0.48627,-1.57371 0.27027,-1.97713 0.13206,-2.51 z"
         style="vector-effect:none;fill:#535351;fill-opacity:1;fill-rule:nonzero;stroke:none;stroke-width:0.115189;stroke-linecap:round;stroke-linejoin:round;stroke-miterlimit:4;stroke-dasharray:none;stroke-dashoffset:0;stroke-opacity:1;paint-order:stroke fill markers" /><path
         id="path2781"
         d="m 386.52949,101.63948 c -2.6123,1.70257 -3.69984,7.1569 -5.7632,9.70928 -2.77382,3.43118 -2.42514,8.98906 -2.09305,13.94189 0.0803,-0.34108 0.16487,-0.67824 0.25348,-1.01168 0.0888,-0.33402 0.18101,-0.66348 0.27673,-0.98912 0.37962,-1.29153 0.80459,-2.50653 1.23513,-3.64015 0.0308,-0.0811 0.0608,-0.15531 0.0916,-0.23548 0.19333,-0.50322 0.37755,-0.97527 0.5662,-1.43985 0.40707,-1.00487 0.78807,-1.90272 1.11213,-2.69976 0.12089,-0.29687 0.21873,-0.55514 0.3202,-0.81965 0.0506,-0.13235 0.11246,-0.28188 0.15748,-0.40571 0.0464,-0.12771 0.0869,-0.24758 0.12669,-0.36597 0.0131,-0.0396 0.0296,-0.0829 0.0419,-0.12146 0,-10e-4 0,-0.003 0,-0.004 0.0522,-0.16117 0.0975,-0.31305 0.13496,-0.45521 0.0965,-0.3662 0.20362,-0.74796 0.31723,-1.13913 0.0562,-0.1935 0.11784,-0.39425 0.17771,-0.59319 0.0596,-0.19777 0.11886,-0.39495 0.18225,-0.59771 0.0833,-0.26697 0.17032,-0.53888 0.25948,-0.81365 0.0345,-0.10638 0.0695,-0.21284 0.10493,-0.32022 0.11217,-0.34085 0.22718,-0.68442 0.34721,-1.03491 0.55745,-1.62749 1.19458,-3.34521 1.87481,-5.0755 0.30111,-0.9786 0.32944,-1.5031 0.27448,-1.88831 z"
         style="vector-effect:none;fill:#878882;fill-opacity:1;fill-rule:nonzero;stroke:none;stroke-width:0.115189;stroke-linecap:round;stroke-linejoin:round;stroke-miterlimit:4;stroke-dasharray:none;stroke-dashoffset:0;stroke-opacity:1;paint-order:stroke fill markers"
         inkscape:connector-curvature="0" /><path
         style="vector-effect:none;fill:#55170a;fill-opacity:1;fill-rule:nonzero;stroke:none;stroke-width:2.94027;stroke-linecap:round;stroke-linejoin:round;stroke-miterlimit:4;stroke-dasharray:none;stroke-dashoffset:0;stroke-opacity:1;paint-order:stroke fill markers"
         d="m 413.94233,86.950826 c -3.42371,-0.23254 -6.1991,2.354275 -6.19916,5.777936 -1.5e-4,3.423821 2.77531,6.388028 6.19916,6.620727 3.42376,0.23254 6.19922,-2.354493 6.19909,-5.778293 -8e-5,-3.423676 -2.77546,-6.387642 -6.19909,-6.62037 z m -6.44694,12.625253 c -0.75166,-0.05108 -1.45771,0.265481 -1.97101,0.779641 l -7.29007,7.08961 c -0.69736,0.67768 -0.96786,1.69465 -0.71434,2.6854 l 2.79228,10.91525 c 0.38761,1.5896 1.97746,2.64318 3.53608,2.34331 1.55865,-0.29986 2.48557,-1.83767 2.06167,-3.42027 l -2.38521,-9.32223 3.60828,-3.50886 v 16.2476 l -6.81522,26.40957 c -0.48502,1.78374 0.6085,3.72078 2.43116,4.30663 1.82272,0.58585 3.67147,-0.40552 4.11037,-2.2041 l 6.96395,-26.98578 c 0.0488,-0.18321 0.0819,-0.37131 0.0982,-0.56233 l 0.4123,0.028 c 0.0176,0.1934 0.0511,0.38606 0.10129,0.57589 l 6.96438,27.93218 c 0.43308,1.86438 2.28567,3.11434 4.11331,2.77526 1.82758,-0.33905 2.92102,-2.13565 2.42775,-3.98888 l -6.964,-27.93363 c -0.0531,-0.22517 -0.12843,-0.44594 -0.22482,-0.65886 v -15.40443 l 3.98075,4.41277 -2.38371,8.99821 c -0.43212,1.52735 0.49474,3.19923 2.05825,3.71258 1.56347,0.51328 3.15729,-0.33106 3.53919,-1.87495 l 2.79264,-10.53578 c 0.25348,-0.9563 -0.0167,-2.01 -0.71437,-2.78247 l -7.29007,-8.08028 c -0.5337,-0.60784 -1.27595,-1.00468 -2.05792,-1.05756 z"
         id="path2783"
         inkscape:connector-curvature="0"
         sodipodi:nodetypes="cccccsccccscccccsccccccsccccccsccccss" /><path
         id="path2785"
         d="m 421.27879,184.69604 c -17.706,2.86681 -31.77287,16.59202 -35.14379,34.12387 -0.50613,2.63246 -1.65391,8.89357 -3.85161,12.26506 -3.72382,5.71272 -4.40384,16.56364 -2.19802,21.27543 5.57233,7.62722 13.58843,13.27857 22.881,15.85418 0.3784,0.10493 0.75954,0.20385 1.14213,0.29846 0.057,0.0145 0.11392,0.028 0.17098,0.0421 0.32921,0.08 0.65999,0.15496 0.99214,0.22723 0.0782,0.0168 0.15637,0.0345 0.23472,0.0509 0.35518,0.0752 0.71252,0.14599 1.07092,0.21222 0.0373,0.007 0.0744,0.0145 0.11175,0.021 0.40798,0.0743 0.81786,0.14367 1.22987,0.20623 0.0165,0.004 0.0334,0.004 0.0502,0.007 0.37458,0.0564 0.75089,0.1071 1.12862,0.15374 0.12103,0.0149 0.24238,0.028 0.36373,0.0421 0.27046,0.0311 0.54166,0.0602 0.81366,0.0862 0.15117,0.0147 0.30285,0.0276 0.45444,0.0405 0.26338,0.0223 0.52722,0.0424 0.79193,0.0599 0.14048,0.009 0.28069,0.0184 0.42149,0.0261 0.26599,0.0149 0.53286,0.0265 0.80013,0.0369 0.14994,0.006 0.29969,0.0116 0.44996,0.0165 0.39816,0.0116 0.79762,0.018 1.1984,0.018 1.95547,2e-5 3.88028,-0.13076 5.76618,-0.3847 1.88538,-0.25385 3.73218,-0.6302 5.53145,-1.12117 0,-1.1e-4 0,0 0,0 4.94627,-1.34993 9.53538,-3.56493 13.5954,-6.47188 0.004,0 0.004,-0.004 0.007,-0.006 0.36084,-0.25845 0.71704,-0.52261 1.06937,-0.79191 0.004,-0.004 0.006,-0.004 0.009,-0.007 4.30564,-3.2977 7.95316,-7.39278 10.71347,-12.05881 0.29238,-0.50783 0.59978,-1.00848 0.9149,-1.50433 1.03401,-1.89627 1.93091,-3.878 2.67272,-5.93417 1.63649,-4.53632 2.52873,-9.42862 2.52878,-14.5291 -1.5e-4,-21.29743 -15.55441,-38.95966 -35.92231,-42.25409 z"
         style="vector-effect:none;fill:#00ff00;fill-opacity:1;fill-rule:nonzero;stroke:none;stroke-width:0.371359;stroke-linecap:round;stroke-linejoin:round;stroke-miterlimit:4;stroke-dasharray:none;stroke-dashoffset:0;stroke-opacity:1;paint-order:stroke fill markers"
         inkscape:connector-curvature="0" /><path
         id="path2787"
         d="m 414.39146,186.88659 a 40.064574,40.064574 0 0 0 -1.46236,0.0517 c -13.66356,5.20856 -23.97353,17.21195 -26.7941,31.88159 -0.50613,2.63246 -1.65391,8.89357 -3.85161,12.26506 -2.3806,3.65207 -3.51115,9.39937 -3.44516,14.30487 a 40.064574,40.064574 0 0 0 35.55323,21.62559 40.064574,40.064574 0 0 0 40.0648,-40.0648 40.064574,40.064574 0 0 0 -40.0648,-40.06403 z"
         style="vector-effect:none;fill:#000000;fill-opacity:1;fill-rule:nonzero;stroke:none;stroke-width:0.347552;stroke-linecap:round;stroke-linejoin:round;stroke-miterlimit:4;stroke-dasharray:none;stroke-dashoffset:0;stroke-opacity:1;paint-order:stroke fill markers"
         inkscape:connector-curvature="0" /><path
         id="path2789"
         d="m 387.23667,210.09454 c -8.97409,3.91112 -10.05137,14.37039 -8.25369,24.29236 0.61933,-1.87658 1.42238,-3.74739 2.4155,-5.57195 0.98226,-1.80462 2.65295,-5.94051 2.92395,-7.92071 0.51624,-3.77229 1.50969,-7.39254 2.91424,-10.7997 z"
         style="vector-effect:none;fill:#4f4f4d;fill-opacity:1;fill-rule:nonzero;stroke:none;stroke-width:0.383962;stroke-linecap:round;stroke-linejoin:round;stroke-miterlimit:4;stroke-dasharray:none;stroke-dashoffset:0;stroke-opacity:1;paint-order:stroke fill markers"
         inkscape:connector-curvature="0" /><path
         id="path2791"
         d="m 386.66371,211.55988 c -6.81396,3.77017 -7.54565,11.89477 -6.45991,19.68034 0.36313,-0.8147 0.75901,-1.62486 1.19468,-2.42527 0.98226,-1.80462 2.65295,-5.94051 2.92395,-7.92071 0.44284,-3.23616 1.23817,-6.36038 2.34128,-9.33436 z"
         style="vector-effect:none;fill:#8f908b;fill-opacity:1;fill-rule:nonzero;stroke:none;stroke-width:0.383962;stroke-linecap:round;stroke-linejoin:round;stroke-miterlimit:4;stroke-dasharray:none;stroke-dashoffset:0;stroke-opacity:1;paint-order:stroke fill markers"
         inkscape:connector-curvature="0" /><path
         sodipodi:nodetypes="ssscsscs"
         inkscape:connector-curvature="0"
         id="path2793"
         d="m 452.24651,205.92972 c -3.16645,-6.43762 -8.80773,-10.86242 -13.64265,-16.05015 -4.25036,-4.56056 -2.18998,-3.27406 2.52217,-2.52218 2.6172,0.41761 5.09979,1.23852 7.56652,2.17826 -3.73489,-0.0303 -6.89317,-1.93696 -3.09537,2.40752 4.26593,4.87999 7.75943,10.30204 10.43259,16.16481 4.15898,9.12151 7.30719,21.94068 -0.11465,32.10027 3.37181,-13.16804 2.29936,-22.14527 -3.66859,-34.27853 z"
         style="vector-effect:none;fill:#00ff00;fill-opacity:1;fill-rule:nonzero;stroke:none;stroke-width:0.383962;stroke-linecap:round;stroke-linejoin:round;stroke-miterlimit:4;stroke-dasharray:none;stroke-dashoffset:0;stroke-opacity:1;paint-order:stroke fill markers" /><path
         sodipodi:nodetypes="cccccssccscccccccsccccscccccscccsss"
         inkscape:connector-curvature="0"
         id="path2795"
         d="m 414.18503,190.53246 c -3.3327,-0.19179 -6.03431,2.35441 -6.03416,5.68711 7e-5,3.33255 2.7016,6.18961 6.03416,6.38157 3.33252,0.19176 6.03405,-2.35423 6.03416,-5.68674 10e-5,-3.33267 -2.70151,-6.18997 -6.03416,-6.38194 z m -2.9754,12.54141 c -0.77245,-0.0444 -1.90214,1.28662 -2.12698,2.01269 l -3.19855,10.3296 -8.08389,7.84685 c -1.11179,1.04618 -1.0997,2.85225 0.0268,4.01235 1.12653,1.1601 2.93152,1.22525 4.00997,0.14469 l 8.55897,-8.30846 c 0.0345,-0.0353 0.0681,-0.0714 0.10042,-0.10855 v 5.07085 l -9.18576,8.98643 c -0.29331,0.28732 -0.52519,0.63193 -0.68288,1.01488 l -6.97839,16.928 c -0.70658,1.64867 0.10463,3.63627 1.80329,4.41811 1.6986,0.78183 3.62855,0.0559 4.28987,-1.6136 l 6.73866,-16.34762 8.151,-7.97493 12.32746,26.0974 c 0.77776,1.70273 2.76115,2.51861 4.40847,1.8135 1.64734,-0.70512 2.32235,-2.65891 1.50034,-4.34267 l -12.28565,-26.00887 v -16.6828 l 4.27801,4.41105 -0.1536,6.67006 c -0.0576,1.56554 1.17894,2.94966 2.74844,3.07628 1.56948,0.12668 2.86544,-1.05309 2.88033,-2.62207 l 0.18291,-7.89596 c 0.018,-0.78101 -0.29026,-1.55304 -0.85077,-2.131 l -7.09714,-7.31625 c -0.54524,-0.56206 -1.2702,-0.89896 -2.03107,-0.94277 z"
         style="color:#000000;font-style:normal;font-variant:normal;font-weight:normal;font-stretch:normal;font-size:medium;line-height:normal;font-family:sans-serif;font-variant-ligatures:normal;font-variant-position:normal;font-variant-caps:normal;font-variant-numeric:normal;font-variant-alternates:normal;font-feature-settings:normal;text-indent:0;text-align:start;text-decoration:none;text-decoration-line:none;text-decoration-style:solid;text-decoration-color:#000000;letter-spacing:normal;word-spacing:normal;text-transform:none;writing-mode:lr-tb;direction:ltr;text-orientation:mixed;dominant-baseline:auto;baseline-shift:baseline;text-anchor:start;white-space:normal;shape-padding:0;clip-rule:nonzero;display:inline;overflow:visible;visibility:visible;isolation:auto;mix-blend-mode:normal;color-interpolation:sRGB;color-interpolation-filters:linearRGB;solid-color:#000000;solid-opacity:1;vector-effect:none;fill:#00ff00;fill-opacity:1;fill-rule:nonzero;stroke:none;stroke-width:6.56859;stroke-linecap:round;stroke-linejoin:round;stroke-miterlimit:4;stroke-dasharray:none;stroke-dashoffset:0;stroke-opacity:1;paint-order:stroke fill markers;color-rendering:auto;image-rendering:auto;shape-rendering:auto;text-rendering:auto;enable-background:accumulate" /><path
         id="path2797"
         d="m 358.69671,71.337942 -2.75147,1.375365 0.91713,208.881433 1.83434,-0.0464 z"
         style="vector-effect:none;fill:#000000;fill-opacity:0.984849;fill-rule:nonzero;stroke:none;stroke-width:0.767924;stroke-linecap:round;stroke-linejoin:round;stroke-miterlimit:4;stroke-dasharray:none;stroke-dashoffset:0;stroke-opacity:1;paint-order:stroke fill markers"
         inkscape:connector-curvature="0" /></g></g></svg>
