<?xml version="1.0" encoding="UTF-8" standalone="no"?>
<!-- Created with Inkscape (http://www.inkscape.org/) -->

<svg
   xmlns:dc="http://purl.org/dc/elements/1.1/"
   xmlns:cc="http://creativecommons.org/ns#"
   xmlns:rdf="http://www.w3.org/1999/02/22-rdf-syntax-ns#"
   xmlns:svg="http://www.w3.org/2000/svg"
   xmlns="http://www.w3.org/2000/svg"
   xmlns:sodipodi="http://sodipodi.sourceforge.net/DTD/sodipodi-0.dtd"
   xmlns:inkscape="http://www.inkscape.org/namespaces/inkscape"
   width="1254.2507mm"
   height="283.9371mm"
   viewBox="0 0 1254.2507 283.9371"
   version="1.1"
   id="svg8"
   inkscape:version="0.92.3 (2405546, 2018-03-11)"
   sodipodi:docname="smarta-byar-smart-village-community.svg"
   inkscape:export-filename="/home/ctate/.local/src/smartabyar-smartvillage-static/png/smarta-byar-smart-village-community.png"
   inkscape:export-xdpi="37.5"
   inkscape:export-ydpi="37.5">
  <defs
     id="defs2" />
  <sodipodi:namedview
     id="base"
     pagecolor="#ffffff"
     bordercolor="#666666"
     borderopacity="1.0"
     inkscape:pageopacity="0.0"
     inkscape:pageshadow="2"
     inkscape:zoom="0.061871843"
     inkscape:cx="-5498.3473"
     inkscape:cy="2580.131"
     inkscape:document-units="mm"
     inkscape:current-layer="layer1"
     showgrid="false"
     fit-margin-top="0"
     fit-margin-left="0"
     fit-margin-right="0"
     fit-margin-bottom="0"
     inkscape:window-width="1920"
     inkscape:window-height="983"
     inkscape:window-x="0"
     inkscape:window-y="27"
     inkscape:window-maximized="1" />
  <metadata
     id="metadata5">
    <rdf:RDF>
      <cc:Work
         rdf:about="">
        <dc:format>image/svg+xml</dc:format>
        <dc:type
           rdf:resource="http://purl.org/dc/dcmitype/StillImage" />
        <dc:title></dc:title>
      </cc:Work>
    </rdf:RDF>
  </metadata>
  <g
     inkscape:label="Layer 1"
     inkscape:groupmode="layer"
     id="layer1"
     transform="translate(-10.008817,-47.374311)">
    <g
       aria-label="Smarta Byar 
Smart Village
 Community"
       style="font-style:normal;font-variant:normal;font-weight:normal;font-stretch:normal;font-size:10.58333302px;line-height:1.25;font-family:Futurism;-inkscape-font-specification:Futurism;letter-spacing:0px;word-spacing:0px;fill:#000000;fill-opacity:1;stroke:none;stroke-width:0.26458332"
       id="text817"
       transform="matrix(7.462783,0,0,7.462783,-64.684813,-307.76783)">
      <path
         d="m 44.144332,58.383432 v -2.592917 h 2.677583 v 1.23825 h 2.54 v -3.926416 h -5.217583 v -5.249333 h 7.895166 v 2.603499 h -2.677583 v -1.248833 h -3.862917 v 2.614083 h 7.863417 v 6.561667 z m 10.011833,0.79375 v -7.090833 h -0.529167 v -0.529167 h -7.33425 v -1.55575 h 2.804584 v 0.719667 h 0.529166 v 0.529166 h 3.20675 v -3.132666 h -0.529166 v -0.529167 h -8.424334 v 5.7785 h 0.529167 v 0.529167 h 4.688417 v 2.868083 h -1.481667 v -0.709083 h -0.529167 v -0.529167 h -3.20675 v 3.122083 h 0.529167 v 0.529167 z"
         style="font-style:normal;font-variant:normal;font-weight:normal;font-stretch:normal;font-family:Futurism;-inkscape-font-specification:Futurism;stroke-width:0.26458332"
         id="path879"
         inkscape:connector-curvature="0" />
      <path
         d="m 64.120704,58.383432 v -9.17575 h -1.291167 v 9.17575 h -2.677583 v -9.17575 h -1.291167 v 9.17575 h -3.926416 v -6.63575 h 1.322916 v -3.894666 h 9.218084 v 10.530416 z m 2.148417,0.79375 V 48.117599 h -0.529167 v -0.529167 h -9.74725 v 3.894667 h -1.322916 v 7.164916 h 0.529166 v 0.529167 h 4.455583 v -9.17575 h 0.232834 v 8.646583 h 0.529166 v 0.529167 h 3.20675 v -9.17575 h 0.232834 v 8.646583 h 0.529166 v 0.529167 z"
         style="font-style:normal;font-variant:normal;font-weight:normal;font-stretch:normal;font-family:Futurism;-inkscape-font-specification:Futurism;stroke-width:0.26458332"
         id="path881"
         inkscape:connector-curvature="0" />
      <path
         d="m 73.702257,49.175932 h -2.603499 v 2.6035 h 2.603499 z m 1.291167,9.2075 v -5.207 h -3.937 v 5.207 h -3.926416 v -6.593417 h 1.322916 v -3.936999 h 6.646333 v 3.936999 h 1.248834 v 6.593417 z m 2.148417,0.79375 v -7.122583 h -0.529167 v -0.529167 h -0.719667 v -3.407833 h -0.529166 v -0.529167 h -7.1755 v 3.937 h -1.322917 v 7.122583 h 0.529167 v 0.529167 h 4.455583 v -5.207 h 2.878667 v 4.677833 h 0.529166 v 0.529167 z m -5.249334,-9.2075 h 1.545167 v 1.545167 h -1.545167 z"
         style="font-style:normal;font-variant:normal;font-weight:normal;font-stretch:normal;font-family:Futurism;-inkscape-font-specification:Futurism;stroke-width:0.26458332"
         id="path883"
         inkscape:connector-curvature="0" />
      <path
         d="M 84.492296,49.175932 H 80.56588 v 2.6035 h 3.926416 z m 1.291167,9.2075 v -5.207 h -3.937 v 5.207 H 77.920047 V 47.853016 h 7.969249 v 3.968749 h 1.248834 v 6.561667 z m 2.148417,0.79375 V 52.086349 H 87.402713 V 51.557182 H 86.683046 V 48.117599 H 86.15388 v -0.529167 h -8.498417 v 11.059583 h 0.529167 v 0.529167 h 4.455583 v -5.207 h 2.878667 v 4.677833 h 0.529166 v 0.529167 z m -6.57225,-9.2075 h 2.868083 v 1.545167 H 81.35963 Z"
         style="font-style:normal;font-variant:normal;font-weight:normal;font-stretch:normal;font-family:Futurism;-inkscape-font-specification:Futurism;stroke-width:0.26458332"
         id="path885"
         inkscape:connector-curvature="0" />
      <path
         d="m 94.033502,49.175932 v 2.645833 h 1.248834 v 6.561667 h -4.0005 v -9.2075 h -2.57175 v -1.322916 h 7.895166 v 1.322916 z m 3.3655,0.79375 v -1.852083 h -0.529167 v -0.529167 h -8.424333 v 1.852084 h 0.529167 v 0.529166 h 2.042583 v 8.678333 h 0.529167 v 0.529167 h 4.529667 v -7.090833 h -0.529167 v -0.529167 h -0.719667 v -1.5875 z"
         style="font-style:normal;font-variant:normal;font-weight:normal;font-stretch:normal;font-family:Futurism;-inkscape-font-specification:Futurism;stroke-width:0.26458332"
         id="path887"
         inkscape:connector-curvature="0" />
      <path
         d="m 104.60477,49.175932 h -2.6035 v 2.6035 h 2.6035 z m 1.29116,9.2075 v -5.207 h -3.937 v 5.207 h -3.926415 v -6.593417 h 1.322917 v -3.936999 h 6.646338 v 3.936999 h 1.24883 v 6.593417 z m 2.14842,0.79375 v -7.122583 h -0.52917 v -0.529167 h -0.71966 v -3.407833 h -0.52917 v -0.529167 h -7.175501 v 3.937 h -1.322917 v 7.122583 h 0.529167 v 0.529167 h 4.455581 v -5.207 h 2.87867 v 4.677833 h 0.52917 v 0.529167 z m -5.24933,-9.2075 h 1.54516 v 1.545167 h -1.54516 z"
         style="font-style:normal;font-variant:normal;font-weight:normal;font-stretch:normal;font-family:Futurism;-inkscape-font-specification:Futurism;stroke-width:0.26458332"
         id="path889"
         inkscape:connector-curvature="0" />
      <path
         d="m 122.00939,53.144682 h -3.92642 v 3.915833 h 3.92642 z m -2.64584,-3.96875 h -2.6035 v 2.6035 h 2.6035 z m -5.24933,9.2075 V 47.853016 h 7.96925 v 3.968749 h 1.24883 v 6.561667 z m 10.01183,0.79375 v -7.090833 h -0.52917 v -0.529167 h -0.71966 v -3.439583 h -0.52917 v -0.529167 h -8.49841 v 11.059583 h 0.52916 v 0.529167 z m -5.24933,-5.23875 h 2.86808 v 2.8575 h -2.86808 z m -1.32292,-3.96875 h 1.54517 v 1.545167 h -1.54517 z"
         style="font-style:normal;font-variant:normal;font-weight:normal;font-stretch:normal;font-family:Futurism;-inkscape-font-specification:Futurism;stroke-width:0.26458332"
         id="path891"
         inkscape:connector-curvature="0" />
      <path
         d="m 131.47651,53.144682 v 5.23875 h -4.0005 v -5.23875 h -2.57175 v -5.291666 h 2.67758 v 3.894666 h 5.25992 v -3.894666 h 1.28058 v 5.291666 z m 3.43958,0.79375 v -5.820833 h -0.52917 v -0.529167 h -1.80975 v 3.894667 h -4.20158 v -3.3655 h -0.52917 v -0.529167 h -3.20675 v 5.820833 h 0.52917 v 0.529167 h 2.04258 v 4.709583 h 0.52917 v 0.529167 h 4.52967 v -5.23875 z"
         style="font-style:normal;font-variant:normal;font-weight:normal;font-stretch:normal;font-family:Futurism;-inkscape-font-specification:Futurism;stroke-width:0.26458332"
         id="path893"
         inkscape:connector-curvature="0" />
      <path
         d="m 142.26655,49.175932 h -2.6035 v 2.6035 h 2.6035 z m 1.29116,9.2075 v -5.207 h -3.937 v 5.207 h -3.92641 v -6.593417 h 1.32291 v -3.936999 h 6.64634 v 3.936999 h 1.24883 v 6.593417 z m 2.14842,0.79375 v -7.122583 h -0.52917 v -0.529167 h -0.71966 v -3.407833 h -0.52917 v -0.529167 h -7.1755 v 3.937 h -1.32292 v 7.122583 h 0.52917 v 0.529167 h 4.45558 v -5.207 h 2.87867 v 4.677833 h 0.52917 v 0.529167 z m -5.24933,-9.2075 h 1.54516 v 1.545167 h -1.54516 z"
         style="font-style:normal;font-variant:normal;font-weight:normal;font-stretch:normal;font-family:Futurism;-inkscape-font-specification:Futurism;stroke-width:0.26458332"
         id="path895"
         inkscape:connector-curvature="0" />
      <path
         d="m 153.05659,49.175932 h -3.92642 v 2.6035 h 3.92642 z m 1.29116,9.2075 v -5.207 h -3.937 v 5.207 h -3.92641 V 47.853016 h 7.96925 v 3.968749 h 1.24883 v 6.561667 z m 2.14842,0.79375 V 52.086349 H 155.967 v -0.529167 h -0.71966 v -3.439583 h -0.52917 v -0.529167 h -8.49842 v 11.059583 h 0.52917 v 0.529167 h 4.45558 v -5.207 h 2.87867 v 4.677833 h 0.52917 v 0.529167 z m -6.57225,-9.2075 h 2.86808 v 1.545167 h -2.86808 z"
         style="font-style:normal;font-variant:normal;font-weight:normal;font-stretch:normal;font-family:Futurism;-inkscape-font-specification:Futurism;stroke-width:0.26458332"
         id="path897"
         inkscape:connector-curvature="0" />
      <path
         d="m 44.144332,71.612598 v -2.592916 h 2.677583 v 1.23825 h 2.54 v -3.926417 h -5.217583 v -5.249333 h 7.895166 v 2.6035 h -2.677583 v -1.248834 h -3.862917 v 2.614084 h 7.863417 v 6.561666 z m 10.011833,0.79375 v -7.090833 h -0.529167 v -0.529167 h -7.33425 v -1.55575 h 2.804584 v 0.719667 h 0.529166 v 0.529167 h 3.20675 v -3.132667 h -0.529166 v -0.529166 h -8.424334 v 5.778499 h 0.529167 v 0.529167 h 4.688417 v 2.868083 h -1.481667 v -0.709083 h -0.529167 v -0.529167 h -3.20675 v 3.122084 h 0.529167 v 0.529166 z"
         style="font-style:normal;font-variant:normal;font-weight:normal;font-stretch:normal;font-family:Futurism;-inkscape-font-specification:Futurism;stroke-width:0.26458332"
         id="path899"
         inkscape:connector-curvature="0" />
      <path
         d="m 64.120704,71.612598 v -9.17575 h -1.291167 v 9.17575 h -2.677583 v -9.17575 h -1.291167 v 9.17575 h -3.926416 v -6.63575 h 1.322916 v -3.894666 h 9.218084 v 10.530416 z m 2.148417,0.79375 V 61.346765 h -0.529167 v -0.529166 h -9.74725 v 3.894666 h -1.322916 v 7.164917 h 0.529166 v 0.529166 h 4.455583 v -9.17575 h 0.232834 v 8.646584 h 0.529166 v 0.529166 h 3.20675 v -9.17575 h 0.232834 v 8.646584 h 0.529166 v 0.529166 z"
         style="font-style:normal;font-variant:normal;font-weight:normal;font-stretch:normal;font-family:Futurism;-inkscape-font-specification:Futurism;stroke-width:0.26458332"
         id="path901"
         inkscape:connector-curvature="0" />
      <path
         d="m 73.702257,62.405098 h -2.603499 v 2.6035 h 2.603499 z m 1.291167,9.2075 v -5.207 h -3.937 v 5.207 h -3.926416 v -6.593416 h 1.322916 v -3.937 h 6.646333 v 3.937 h 1.248834 v 6.593416 z m 2.148417,0.79375 v -7.122583 h -0.529167 v -0.529167 h -0.719667 v -3.407833 h -0.529166 v -0.529166 h -7.1755 v 3.936999 h -1.322917 v 7.122584 h 0.529167 v 0.529166 h 4.455583 v -5.207 h 2.878667 v 4.677834 h 0.529166 v 0.529166 z m -5.249334,-9.2075 h 1.545167 v 1.545167 h -1.545167 z"
         style="font-style:normal;font-variant:normal;font-weight:normal;font-stretch:normal;font-family:Futurism;-inkscape-font-specification:Futurism;stroke-width:0.26458332"
         id="path903"
         inkscape:connector-curvature="0" />
      <path
         d="M 84.492296,62.405098 H 80.56588 v 2.6035 h 3.926416 z m 1.291167,9.2075 v -5.207 h -3.937 v 5.207 H 77.920047 V 61.082182 h 7.969249 v 3.96875 h 1.248834 v 6.561666 z m 2.148417,0.79375 V 65.315515 H 87.402713 V 64.786348 H 86.683046 V 61.346765 H 86.15388 v -0.529166 h -8.498417 v 11.059583 h 0.529167 v 0.529166 h 4.455583 v -5.207 h 2.878667 v 4.677834 h 0.529166 v 0.529166 z m -6.57225,-9.2075 h 2.868083 v 1.545167 H 81.35963 Z"
         style="font-style:normal;font-variant:normal;font-weight:normal;font-stretch:normal;font-family:Futurism;-inkscape-font-specification:Futurism;stroke-width:0.26458332"
         id="path905"
         inkscape:connector-curvature="0" />
      <path
         d="m 94.033502,62.405098 v 2.645834 h 1.248834 v 6.561666 h -4.0005 v -9.2075 h -2.57175 v -1.322916 h 7.895166 v 1.322916 z m 3.3655,0.79375 v -1.852083 h -0.529167 v -0.529166 h -8.424333 v 1.852083 h 0.529167 v 0.529166 h 2.042583 v 8.678334 h 0.529167 v 0.529166 h 4.529667 v -7.090833 h -0.529167 v -0.529167 h -0.719667 v -1.5875 z"
         style="font-style:normal;font-variant:normal;font-weight:normal;font-stretch:normal;font-family:Futurism;-inkscape-font-specification:Futurism;stroke-width:0.26458332"
         id="path907"
         inkscape:connector-curvature="0" />
      <path
         d="m 111.21935,69.072598 v 1.27 h -1.32292 v 1.27 h -4.0005 v -1.30175 h -1.32292 v -1.248833 l -1.24883,-0.08467 v -7.895166 h 1.35467 v 6.614583 h 1.32291 v 1.27 h 1.32292 v 1.27 h 1.29117 v -9.154583 h 3.92641 v 7.990416 z m 2.11666,0.79375 v -8.519583 h -0.52916 v -0.529166 h -4.45559 v 9.154583 h -0.23283 v -0.740834 h -0.52917 v -0.529166 h -0.79375 v -0.740834 h -0.52916 v -0.529166 h -0.79375 v -6.085417 h -0.52917 v -0.529166 h -1.88383 v 8.403166 l 0.52916,0.04233 v 0.486834 l 0.71967,0.05292 v 0.772584 h 0.52917 v 0.529166 h 0.79375 v 0.772584 h 0.52916 v 0.529166 h 4.52967 v -1.27 h 1.32292 v -1.27 z"
         style="font-style:normal;font-variant:normal;font-weight:normal;font-stretch:normal;font-family:Futurism;-inkscape-font-specification:Futurism;stroke-width:0.26458332"
         id="path909"
         inkscape:connector-curvature="0" />
      <path
         d="m 114.11422,71.612598 v -1.312333 h 1.32292 v -5.323417 h 1.24883 v -2.57175 h -2.57175 v -1.322916 h 7.89517 v 1.322916 h -2.57175 v 7.895167 h 2.57175 v 1.312333 z m 8.68891,0.79375 v -1.8415 h -0.52916 v -0.529166 h -2.04258 v -6.836834 h 2.57174 v -1.852083 h -0.52916 v -0.529166 h -8.42433 v 1.852083 h 0.52916 v 0.529166 h 2.04259 v 1.513417 h -1.24884 v 5.323417 h -1.32291 v 1.8415 h 0.52916 v 0.529166 z"
         style="font-style:normal;font-variant:normal;font-weight:normal;font-stretch:normal;font-family:Futurism;-inkscape-font-specification:Futurism;stroke-width:0.26458332"
         id="path911"
         inkscape:connector-curvature="0" />
      <path
         d="m 124.90426,71.612598 v -6.63575 h 1.32291 v -3.894666 h 2.67759 v 9.17575 h 2.61408 v -1.23825 h 2.6035 v 2.592916 z m 10.01183,0.79375 v -3.122083 h -0.52917 v -0.529167 h -3.13266 v 1.23825 h -1.55575 v -8.646583 h -0.52917 v -0.529166 h -3.20675 v 3.894666 h -1.32292 v 7.164917 h 0.52917 v 0.529166 z"
         style="font-style:normal;font-variant:normal;font-weight:normal;font-stretch:normal;font-family:Futurism;-inkscape-font-specification:Futurism;stroke-width:0.26458332"
         id="path913"
         inkscape:connector-curvature="0" />
      <path
         d="m 135.6943,71.612598 v -6.63575 h 1.32291 v -3.894666 h 2.67759 v 9.17575 h 2.61408 v -1.23825 h 2.6035 v 2.592916 z m 10.01183,0.79375 v -3.122083 h -0.52917 v -0.529167 h -3.13266 v 1.23825 h -1.55575 v -8.646583 h -0.52917 v -0.529166 h -3.20675 v 3.894666 h -1.32292 v 7.164917 h 0.52917 v 0.529166 z"
         style="font-style:normal;font-variant:normal;font-weight:normal;font-stretch:normal;font-family:Futurism;-inkscape-font-specification:Futurism;stroke-width:0.26458332"
         id="path915"
         inkscape:connector-curvature="0" />
      <path
         d="m 153.05659,62.405098 h -2.6035 v 2.6035 h 2.6035 z m 1.29116,9.2075 v -5.207 h -3.937 v 5.207 h -3.92641 v -6.593416 h 1.32291 v -3.937 h 6.64634 v 3.937 h 1.24883 v 6.593416 z m 2.14842,0.79375 V 65.283765 H 155.967 v -0.529167 h -0.71966 v -3.407833 h -0.52917 v -0.529166 h -7.1755 v 3.936999 h -1.32292 v 7.122584 h 0.52917 v 0.529166 h 4.45558 v -5.207 h 2.87867 v 4.677834 h 0.52917 v 0.529166 z m -5.24933,-9.2075 h 1.54516 v 1.545167 h -1.54516 z"
         style="font-style:normal;font-variant:normal;font-weight:normal;font-stretch:normal;font-family:Futurism;-inkscape-font-specification:Futurism;stroke-width:0.26458332"
         id="path917"
         inkscape:connector-curvature="0" />
      <path
         d="m 157.27437,71.612598 v -6.593416 h 1.32292 v -3.937 h 6.604 v 2.6035 h -2.67758 v -1.248834 h -1.24884 v 7.821084 h 3.83117 v -3.926417 h -2.57175 v -1.312333 h 3.95817 v 6.593416 z m 10.01184,0.79375 v -7.122583 h -0.52917 v -0.529167 h -4.48733 v 1.8415 h 0.52916 v 0.529167 h 2.04259 v 2.868083 h -2.77284 v -6.76275 h 0.1905 v 0.719667 h 0.52917 v 0.529167 h 3.20675 v -3.132667 h -0.52917 v -0.529166 h -7.13316 v 3.936999 h -1.32292 v 7.122584 h 0.52917 v 0.529166 z"
         style="font-style:normal;font-variant:normal;font-weight:normal;font-stretch:normal;font-family:Futurism;-inkscape-font-specification:Futurism;stroke-width:0.26458332"
         id="path919"
         inkscape:connector-curvature="0" />
      <path
         d="m 168.06441,71.612598 v -6.593416 h 1.32292 v -3.937 h 6.57225 v 2.6035 H 173.282 v -1.248834 h -1.21709 v 2.582334 h 2.64584 v 1.386416 h -2.64584 v 3.852334 h 2.54 v -1.23825 h 2.67759 v 2.592916 z m 10.01184,0.79375 v -3.122083 h -0.52917 v -0.529167 h -3.20675 v 1.23825 h -1.48167 v -2.794 h 2.64584 v -1.915583 h -0.52917 v -0.529167 h -2.11667 v -1.524 h 0.15875 v 0.719667 h 0.52917 v 0.529167 h 3.20675 v -3.132667 h -0.52917 v -0.529166 h -7.10141 v 3.936999 h -1.32292 v 7.122584 h 0.52917 v 0.529166 z"
         style="font-style:normal;font-variant:normal;font-weight:normal;font-stretch:normal;font-family:Futurism;-inkscape-font-specification:Futurism;stroke-width:0.26458332"
         id="path921"
         inkscape:connector-curvature="0" />
      <path
         d="m 49.435998,84.841764 v -6.635749 h 1.322917 v -3.894667 h 7.895166 v 2.6035 h -2.645833 v -1.248833 h -2.57175 v 7.821083 h 2.582333 v -1.23825 h 2.63525 v 2.592916 z m 10.011833,0.79375 v -3.122083 h -0.529166 v -0.529166 h -3.164417 v 1.23825 h -1.524 v -6.76275 h 1.513417 v 0.719666 h 0.529166 v 0.529167 h 3.175 v -3.132667 h -0.529166 v -0.529166 h -8.424333 v 3.894666 h -1.322917 v 7.164917 h 0.529167 v 0.529166 z"
         style="font-style:normal;font-variant:normal;font-weight:normal;font-stretch:normal;font-family:Futurism;-inkscape-font-specification:Futurism;stroke-width:0.26458332"
         id="path923"
         inkscape:connector-curvature="0" />
      <path
         d="m 68.121203,75.634265 h -3.926416 v 7.884583 h 3.926416 z m -7.895166,9.207499 v -6.635749 h 1.322917 v -3.894667 h 7.895166 v 10.530416 z m 10.011833,0.79375 V 74.575931 H 69.708703 V 74.046765 H 61.28437 v 3.894666 h -1.322916 v 7.164917 h 0.529166 v 0.529166 z m -5.249333,-9.207499 h 2.868083 v 6.82625 h -2.868083 z"
         style="font-style:normal;font-variant:normal;font-weight:normal;font-stretch:normal;font-family:Futurism;-inkscape-font-specification:Futurism;stroke-width:0.26458332"
         id="path925"
         inkscape:connector-curvature="0" />
      <path
         d="m 80.202409,84.841764 v -9.175749 h -1.291167 v 9.175749 h -2.677583 v -9.175749 h -1.291166 v 9.175749 h -3.926417 v -6.635749 h 1.322917 v -3.894667 h 9.218083 v 10.530416 z m 2.148417,0.79375 V 74.575931 h -0.529167 v -0.529166 h -9.74725 v 3.894666 h -1.322916 v 7.164917 h 0.529166 v 0.529166 h 4.455583 v -9.175749 h 0.232834 v 8.646583 h 0.529166 v 0.529166 h 3.20675 v -9.175749 h 0.232834 v 8.646583 h 0.529166 v 0.529166 z"
         style="font-style:normal;font-variant:normal;font-weight:normal;font-stretch:normal;font-family:Futurism;-inkscape-font-specification:Futurism;stroke-width:0.26458332"
         id="path927"
         inkscape:connector-curvature="0" />
      <path
         d="m 92.398048,84.841764 v -9.175749 h -1.291167 v 9.175749 h -2.677583 v -9.175749 h -1.291167 v 9.175749 h -3.926416 v -6.635749 h 1.322916 v -3.894667 h 9.218083 v 10.530416 z m 2.148416,0.79375 V 74.575931 h -0.529166 v -0.529166 h -9.74725 v 3.894666 h -1.322917 v 7.164917 h 0.529167 v 0.529166 h 4.455583 v -9.175749 h 0.232833 v 8.646583 h 0.529167 v 0.529166 h 3.20675 v -9.175749 h 0.232833 v 8.646583 h 0.529167 v 0.529166 z"
         style="font-style:normal;font-variant:normal;font-weight:normal;font-stretch:normal;font-family:Futurism;-inkscape-font-specification:Futurism;stroke-width:0.26458332"
         id="path929"
         inkscape:connector-curvature="0" />
      <path
         d="m 95.407351,84.841764 v -6.635749 h 1.322917 v -3.894667 h 2.677583 v 9.17575 h 3.936999 v -9.17575 h 1.28058 v 10.530416 z m 10.011829,0.79375 V 74.575931 h -0.52916 v -0.529166 h -1.80975 v 9.17575 h -2.87867 v -8.646584 h -0.529165 v -0.529166 h -3.20675 v 3.894666 h -1.322917 v 7.164917 h 0.529167 v 0.529166 z"
         style="font-style:normal;font-variant:normal;font-weight:normal;font-stretch:normal;font-family:Futurism;-inkscape-font-specification:Futurism;stroke-width:0.26458332"
         id="path931"
         inkscape:connector-curvature="0" />
      <path
         d="m 114.06081,84.841764 v -9.175749 h -3.937 v 9.175749 h -3.92642 v -6.635749 h 1.32292 v -3.894667 h 7.89516 v 10.530416 z m 2.14841,0.79375 V 74.575931 h -0.52916 v -0.529166 h -8.42434 v 3.894666 h -1.32291 v 7.164917 h 0.52916 v 0.529166 h 4.45559 v -9.175749 h 2.87866 v 8.646583 h 0.52917 v 0.529166 z"
         style="font-style:normal;font-variant:normal;font-weight:normal;font-stretch:normal;font-family:Futurism;-inkscape-font-specification:Futurism;stroke-width:0.26458332"
         id="path933"
         inkscape:connector-curvature="0" />
      <path
         d="m 116.98743,84.841764 v -1.312333 h 1.32292 v -5.323416 h 1.24883 v -2.57175 h -2.57175 v -1.322917 h 7.89517 v 1.322917 h -2.57175 v 7.895166 h 2.57175 v 1.312333 z m 8.68892,0.79375 v -1.8415 h -0.52917 v -0.529166 h -2.04258 v -6.836833 h 2.57175 v -1.852084 h -0.52917 v -0.529166 h -8.42433 v 1.852083 h 0.52917 v 0.529167 h 2.04258 v 1.513416 h -1.24883 v 5.323417 h -1.32292 v 1.8415 h 0.52917 v 0.529166 z"
         style="font-style:normal;font-variant:normal;font-weight:normal;font-stretch:normal;font-family:Futurism;-inkscape-font-specification:Futurism;stroke-width:0.26458332"
         id="path935"
         inkscape:connector-curvature="0" />
      <path
         d="m 133.10089,75.634265 v 2.645833 h 1.24883 v 6.561666 h -4.0005 v -9.207499 h -2.57175 v -1.322917 h 7.89517 v 1.322917 z m 3.3655,0.79375 v -1.852084 h -0.52917 v -0.529166 h -8.42433 v 1.852083 h 0.52917 v 0.529167 h 2.04258 v 8.678333 h 0.52917 v 0.529166 h 4.52966 v -7.090833 h -0.52916 v -0.529166 h -0.71967 v -1.5875 z"
         style="font-style:normal;font-variant:normal;font-weight:normal;font-stretch:normal;font-family:Futurism;-inkscape-font-specification:Futurism;stroke-width:0.26458332"
         id="path937"
         inkscape:connector-curvature="0" />
      <path
         d="m 143.67215,79.603015 v 5.238749 h -4.0005 v -5.238749 h -2.57175 v -5.291667 h 2.67758 v 3.894667 h 5.25992 v -3.894667 h 1.28058 v 5.291667 z m 3.43958,0.79375 v -5.820834 h -0.52917 v -0.529166 h -1.80975 v 3.894666 h -4.20158 v -3.3655 h -0.52917 v -0.529166 h -3.20675 v 5.820833 h 0.52917 v 0.529167 h 2.04258 v 4.709583 h 0.52917 v 0.529166 h 4.52967 v -5.238749 z"
         style="font-style:normal;font-variant:normal;font-weight:normal;font-stretch:normal;font-family:Futurism;-inkscape-font-specification:Futurism;stroke-width:0.26458332"
         id="path939"
         inkscape:connector-curvature="0" />
    </g>
    <path
       style="fill:#000000;stroke-width:0.44359168"
       d="m 10.008817,322.40118 v -8.8718 h 4.435908 4.435916 v -13.30779 -13.30771 h 4.435923 4.435915 V 269.17021 251.4265 h 4.435916 4.435923 v -4.43594 -4.43586 h 4.435915 4.435924 v -22.17958 -22.17965 h -4.435924 -4.435915 v -4.43587 -4.43593 h 4.435915 4.435924 v -4.43593 -4.43592 h 4.435916 4.435914 v -4.43586 -4.43594 h 4.435924 4.435907 v -4.43593 -4.43593 h 4.435916 4.435924 v -4.43593 -4.43593 h 4.435915 4.435923 v -4.43587 -4.43592 h 4.435915 4.435916 v -4.43593 -4.43592 h 4.435916 4.435922 v -8.87187 -8.8718 h 4.435915 4.43591 v -8.87186 -8.87179 h 4.43592 4.43592 v -8.87186 -8.871861 h 4.43591 4.43592 V 69.553902 56.24611 h 4.43591 4.43593 v -4.435871 -4.435922 h 8.87184 8.87183 v 4.435922 4.435871 h 4.43591 4.43592 v 13.307792 13.307717 h 4.43591 4.43593 v 8.871861 8.87186 h 4.43592 4.4359 v 8.87179 8.87186 h 4.43593 4.43592 v 8.8718 8.87187 h 4.4359 4.43592 V 96.16941 56.24611 h 17.74368 17.74366 v 62.10288 62.10283 h 4.43591 4.43594 v 4.43592 4.43593 h 4.43591 4.43591 v 4.43593 4.43587 h -4.43591 -4.43591 v 22.17965 22.17958 h 13.30775 13.30774 v 8.8718 8.87185 h 4.43593 4.43591 v 4.43594 4.43592 h 4.43592 4.43591 v 13.30772 13.30773 h 4.43592 4.43592 v 17.74372 17.74366 H 151.95817 10.008817 Z M 214.06101,309.09345 v -13.30779 h 8.87183 8.87183 v -4.43592 -4.43586 h -4.43591 -4.43592 v -8.87187 -8.8718 h 4.43592 4.43591 V 233.68285 198.19547 H 143.08634 54.367987 v 39.9233 39.92324 h 4.435924 4.435907 v 8.87187 8.87178 h 8.87184 8.871838 v 4.43593 4.43593 h 4.435915 4.435916 v -4.43593 -4.43593 h 4.435916 4.435922 v -4.43592 -4.43586 h 4.435915 4.43591 v 4.43586 4.43592 h 13.30775 13.30776 v 4.43593 4.43593 h 8.87184 8.87183 v -44.35917 -44.35917 h 26.61549 26.6155 v 53.23103 53.23097 h 4.43594 4.43591 z M 72.111658,264.73429 V 251.4265 h 13.307753 13.307754 v 13.30779 13.30772 H 85.419411 72.111658 Z m 35.487332,0 V 251.4265 h 13.30775 13.30776 v 13.30779 13.30772 H 120.90674 107.59899 Z M 72.111658,229.24691 v -13.30773 h 13.307753 13.307754 v 13.30773 13.30779 H 85.419411 72.111658 Z m 35.487332,0 v -13.30773 h 13.30775 13.30776 v 13.30773 13.30779 h -13.30776 -13.30775 z m 62.10285,44.35916 v -4.43586 H 165.26591 160.83 v 4.43586 4.43594 h 4.43591 4.43593 z m 53.231,-88.71833 v -4.43592 h -4.43592 -4.43591 v -4.43586 -4.43594 h -4.43591 -4.43594 v -4.43593 -4.43593 h -4.43589 -4.43594 v -4.43593 -4.43593 h -4.43592 -4.4359 v -4.43587 -4.43592 h -4.43592 -4.43593 v -8.87185 -8.87187 h -4.4359 -4.43592 v -4.43586 -4.43594 H 165.26591 160.83 v -8.87186 -8.87179 h -4.43592 -4.43591 V 87.29755 73.989825 h -8.87183 -8.87184 v 13.307725 13.30779 h -4.43593 -4.43591 v 8.87179 8.87186 h -4.43592 -4.43591 v 4.43594 4.43586 h -4.43592 -4.43592 v 8.87187 8.87185 h -4.43591 -4.435915 v 4.43592 4.43587 h -4.435922 -4.435916 v 4.43593 4.43593 h -4.435916 -4.435915 v 4.43593 4.43593 h -4.435923 -4.435915 v 4.43594 4.43586 h -4.435924 -4.435916 v 4.43592 4.43593 h 79.846522 79.8465 z"
       id="path877"
       inkscape:connector-curvature="0" />
  </g>
</svg>
