<?xml version="1.0" encoding="UTF-8" standalone="no"?>
<svg
   xmlns:dc="http://purl.org/dc/elements/1.1/"
   xmlns:cc="http://creativecommons.org/ns#"
   xmlns:rdf="http://www.w3.org/1999/02/22-rdf-syntax-ns#"
   xmlns:svg="http://www.w3.org/2000/svg"
   xmlns="http://www.w3.org/2000/svg"
   width="42.470268mm"
   height="42.218998mm"
   viewBox="0 0 42.470268 42.218998"
   version="1.1"
   id="svg8">
  <defs
     id="defs2" />
  <metadata
     id="metadata5">
    <rdf:RDF>
      <cc:Work
         rdf:about="">
        <dc:format>image/svg+xml</dc:format>
        <dc:type
           rdf:resource="http://purl.org/dc/dcmitype/StillImage" />
        <dc:title></dc:title>
      </cc:Work>
    </rdf:RDF>
  </metadata>
  <path
     style="fill:#782a90;fill-opacity:1;stroke-width:0.26458332"
     d="m 4.621359,42.027574 c -1.354442,-0.27344 -3.075358,-1.47291 -3.855197,-2.68705 -0.549794,-0.85598 -0.561948,-1.13452 -0.637927,-14.6202 -0.0426,-7.56117 -0.02577,-13.69289 0.0374,-13.62604 0.06317,0.0669 1.127301,2.44327 2.364735,5.28093 1.237433,2.83766 2.600503,5.93328 3.029044,6.87917 1.067789,2.35684 1.739668,3.87426 3.221672,7.27604 l 1.26794,2.91041 1.362186,0.08 1.362186,0.08 v -0.83792 c 0,-1.28705 1.200027,-3.23987 2.493273,-4.05732 0.841369,-0.53182 1.305843,-1.09913 1.819821,-2.22273 0.696374,-1.52232 2.251908,-4.94227 3.570195,-7.84931 0.393618,-0.86799 1.013325,-2.20629 1.377127,-2.974 l 0.661458,-1.39584 2.38125,3.34783 c 1.309688,1.84131 2.351627,3.44707 2.315419,3.56837 -0.0362,0.12129 -1.256596,1.88807 -2.711978,3.92616 -1.455382,2.03809 -2.646149,3.76144 -2.646149,3.82967 0,0.0682 0.365793,0.643 0.812874,1.27728 0.448628,0.63648 0.879195,1.64769 0.960879,2.25669 l 0.148005,1.10347 h 1.245551 1.245551 l 1.546935,-2.18282 c 0.850815,-1.20054 2.098265,-2.95672 2.772108,-3.9026 0.673844,-0.94589 2.104594,-2.96995 3.179442,-4.49792 1.074852,-1.52797 3.100613,-4.38547 4.501693,-6.35 1.40109,-1.96453 2.86523,-4.04599 3.25365,-4.62548 l 0.706227,-1.0536 -0.008,10.5786 c -0.009,11.34288 0.073,10.70971 -1.165027,8.99111 -3.58022,-4.96986 -4.71586,-6.48229 -4.86734,-6.48229 -0.10006,0 -0.32155,0.20835 -0.49221,0.46302 -0.17066,0.25466 -0.971072,1.40991 -1.778697,2.56721 -1.659104,2.37747 -1.699236,1.77913 0.324708,4.84112 l 0.918157,1.38906 h 3.565972 3.565977 l -0.11403,2.4474 c -0.157057,3.37131 -0.749127,4.43073 -3.256377,5.82683 l -1.05834,0.58931 -16.13958,0.0429 c -8.87677,0.0236 -16.652844,-0.0607 -17.280163,-0.18739 z m 15.166201,-5.39581 c 1.776067,-0.74209 2.59632,-2.96217 1.744535,-4.72173 -0.659585,-1.36252 -1.720186,-2.04107 -3.190264,-2.04107 -2.198181,0 -3.551912,1.33614 -3.552936,3.50677 -6.88e-4,1.48149 0.623423,2.48586 1.97206,3.17355 1.103328,0.5626 1.83011,0.5824 3.026605,0.0825 z m -8.577538,-15.59046 c -0.496054,-1.1839 -1.166891,-2.74786 -1.490748,-3.47547 -0.323858,-0.7276 -0.973564,-2.21588 -1.443793,-3.30729 -0.470229,-1.0914 -1.122442,-2.57968 -1.449364,-3.30729 C 6.499196,10.223654 6.147757,9.3604442 6.045143,9.0330242 5.866417,8.4627442 5.735395,8.4377142 2.929286,8.4377142 H 0 L 0.134813,6.0732822 C 0.295922,3.2476862 0.744317,2.3194602 2.529125,1.1167942 3.458068,0.49084019 4.193541,0.23470019 5.429272,0.10677219 c 0.910571,-0.09427 8.680271,-0.133602 17.266,-0.08741 17.37867,0.09349 16.34239,-0.01679 18.24421,1.94156801 1.00597,1.035876 1.467247,2.56558 1.467247,4.865762 v 1.594232 l -3.095337,0.0745 -3.09533,0.0745 -2.37495,3.3901798 -2.37495,3.39019 -0.681278,-0.86334 c -0.374703,-0.47484 -1.455185,-2.00042 -2.40107,-3.39019 L 26.664022,8.5699242 h -3.921864 -3.921865 l -1.23751,2.6600198 c -0.680631,1.46302 -1.586574,3.42755 -2.013207,4.36563 -0.426633,0.93808 -1.330267,2.89623 -2.008077,4.35143 -0.67781,1.45521 -1.281246,2.78105 -1.34097,2.9463 -0.05972,0.16526 -0.514452,-0.66818 -1.010507,-1.85208 z"
     id="path75" />
</svg>
